<?xml version="1.0" encoding="UTF-8"?>
<svg width="348px" height="1149px" viewBox="0 0 348 1149" version="1.1" xmlns="http://www.w3.org/2000/svg" xmlns:xlink="http://www.w3.org/1999/xlink">
    <!-- Generator: Sketch 43.2 (39069) - http://www.bohemiancoding.com/sketch -->
    <title>Page 1</title>
    <desc>Created with Sketch.</desc>
    <defs>
        <polygon id="path-1" points="278.665816 1.25177041 0.889235717 1.25177041 0.889235717 280.705159 278.665816 280.705159 278.665816 1.25177041"></polygon>
    </defs>
    <g id="Travel" stroke="none" stroke-width="1" fill="none" fill-rule="evenodd">
        <g id="detail-travel-result-path2" transform="translate(-833.000000, -284.000000)">
            <g id="Page-1" transform="translate(833.000000, 283.000000)">
                <polygon id="Fill-1" fill="#E7E7E7" points="47.1855122 1080.17512 -0.000712244898 1110.44553 -0.000712244898 1149.02605 347.220456 1149.02605 347.220456 1106.28958 290.091293 1067.71084"></polygon>
                <polygon id="Fill-2" fill="#EBEBEB" points="299.143391 776.877917 347.219922 776.877917 347.219922 564.98506 299.143391 538.275877"></polygon>
                <polygon id="Fill-3" fill="#EBEBEB" points="58.7602041 538.27552 10.6836735 564.984704 10.6836735 776.877561 58.7602041 776.877561"></polygon>
                <g id="Group-23" transform="translate(39.173469, 0.530622)">
                    <g id="Group-6">
                        <mask id="mask-2" fill="white">
                            <use xlink:href="#path-1"></use>
                        </mask>
                        <g id="Clip-5"></g>
                        <path d="M0.890306122,280.446429 C0.790591837,287.549291 7.51952551,146.920097 79.2372449,41.8443878 C155.803571,-70.3341837 251.956633,63.2117347 278.665816,280.446429 L0.890306122,280.446429 Z" id="Fill-4" fill="#EBEBEB" mask="url(#mask-2)"></path>
                    </g>
                    <path d="M184.293367,186.07398 L95.2627551,186.07398 C48.2545918,186.07398 9.79336735,224.535204 9.79336735,271.543367 L9.79336735,1040.76786 C9.79336735,1087.77602 48.2545918,1126.23724 95.2627551,1126.23724 L184.293367,1126.23724 C231.301531,1126.23724 269.762755,1087.77602 269.762755,1040.76786 L269.762755,271.543367 C269.762755,224.535204 231.301531,186.07398 184.293367,186.07398" id="Fill-7" fill="#FFFFFF"></path>
                    <path d="M184.293367,177.170918 L95.2627551,177.170918 C43.2261429,177.170918 0.890306122,219.506755 0.890306122,271.543367 L0.890306122,1040.76786 C0.890306122,1092.80447 43.2261429,1135.14031 95.2627551,1135.14031 L184.293367,1135.14031 C236.32998,1135.14031 278.665816,1092.80447 278.665816,1040.76786 L278.665816,271.543367 C278.665816,219.506755 236.32998,177.170918 184.293367,177.170918 M184.293367,186.07398 C231.301531,186.07398 269.762755,224.535204 269.762755,271.543367 L269.762755,1040.76786 C269.762755,1087.77602 231.301531,1126.23724 184.293367,1126.23724 L95.2627551,1126.23724 C48.2545918,1126.23724 9.79336735,1087.77602 9.79336735,1040.76786 L9.79336735,271.543367 C9.79336735,224.535204 48.2545918,186.07398 95.2627551,186.07398 L184.293367,186.07398" id="Fill-9" fill="#F3F3F3"></path>
                    <path d="M91.2038495,138.537865 L73.2125434,122.734931 C65.5309821,129.574263 59.1011913,137.01188 53.8839974,144.039957 L74.3307679,150.247171 C79.0458291,146.215865 84.6672219,142.168533 91.2038495,138.537865" id="Fill-11" fill="#FFFFFF"></path>
                    <path d="M143.339286,97.1984587 L143.339286,125.520877 C157.131908,125.577857 168.916,128.314658 178.841133,132.491974 L196.383724,116.680137 C182.327571,106.398882 164.751148,98.4858413 143.339286,97.1984587" id="Fill-13" fill="#FFFFFF"></path>
                    <path d="M80.1677929,116.993347 L99.8328745,134.267066 C109.617339,129.995378 121.100507,126.811643 134.435512,125.816281 L134.435512,97.0736378 C112.514395,97.7645153 94.4981602,106.074633 80.1677929,116.993347" id="Fill-15" fill="#FFFFFF"></path>
                    <path d="M203.461124,122.286217 L187.460542,136.709176 C195.220451,141.046747 201.61819,146.158885 206.730328,151.187334 L225.266502,146.078758 C219.600593,138.315288 212.367746,129.910798 203.461124,122.286217" id="Fill-17" fill="#FFFFFF"></path>
                    <path d="M241.272959,173.609694 C241.272959,173.609694 237.841719,165.144663 230.587505,153.848459 L213.468699,158.565301 C220.354327,166.935959 223.466837,173.609694 223.466837,173.609694 L241.272959,173.609694 Z" id="Fill-19" fill="#FFFFFF"></path>
                    <path d="M36.502551,173.609694 L54.3086735,173.609694 C54.3086735,173.609694 58.2847806,166.248643 66.8815765,157.290383 L48.5216837,151.715286 C40.4109949,164.063832 36.502551,173.609694 36.502551,173.609694" id="Fill-21" fill="#FFFFFF"></path>
                </g>
            </g>
        </g>
    </g>
</svg>