<?xml version="1.0" encoding="utf-8"?>
<!-- Generator: Adobe Illustrator 17.0.0, SVG Export Plug-In . SVG Version: 6.00 Build 0)  -->
<!DOCTYPE svg PUBLIC "-//W3C//DTD SVG 1.1//EN" "http://www.w3.org/Graphics/SVG/1.1/DTD/svg11.dtd" [
	<!ENTITY ns_extend "http://ns.adobe.com/Extensibility/1.0/">
	<!ENTITY ns_ai "http://ns.adobe.com/AdobeIllustrator/10.0/">
	<!ENTITY ns_graphs "http://ns.adobe.com/Graphs/1.0/">
	<!ENTITY ns_vars "http://ns.adobe.com/Variables/1.0/">
	<!ENTITY ns_imrep "http://ns.adobe.com/ImageReplacement/1.0/">
	<!ENTITY ns_sfw "http://ns.adobe.com/SaveForWeb/1.0/">
	<!ENTITY ns_custom "http://ns.adobe.com/GenericCustomNamespace/1.0/">
	<!ENTITY ns_adobe_xpath "http://ns.adobe.com/XPath/1.0/">
]>
<svg version="1.1" id="Capa_1" xmlns:x="&ns_extend;" xmlns:i="&ns_ai;" xmlns:graph="&ns_graphs;"
	 xmlns="http://www.w3.org/2000/svg" xmlns:xlink="http://www.w3.org/1999/xlink" x="0px" y="0px" width="93.333px"
	 height="31.667px" viewBox="0 0 93.333 31.667" enable-background="new 0 0 93.333 31.667" xml:space="preserve">
<metadata>
	<sfw  xmlns="&ns_sfw;">
		<slices></slices>
		<sliceSourceBounds  width="435.47" height="111.879" bottomLeftOrigin="true" y="-28.379" x="4.795"></sliceSourceBounds>
	</sfw>
</metadata>
<g>
	<g>
		<path fill="#FFFFFF" d="M9.689,23.316c0.221-0.047,0.567-0.081,0.921-0.081c0.505,0,0.828,0.087,1.072,0.284
			c0.203,0.15,0.325,0.382,0.325,0.689c0,0.376-0.249,0.706-0.661,0.857v0.012c0.371,0.092,0.805,0.399,0.805,0.979
			c0,0.336-0.133,0.591-0.33,0.782c-0.273,0.249-0.713,0.364-1.35,0.364c-0.348,0-0.614-0.023-0.782-0.046V23.316z M10.193,24.915
			h0.458c0.533,0,0.845-0.278,0.845-0.654c0-0.458-0.348-0.637-0.857-0.637c-0.232,0-0.365,0.017-0.446,0.035V24.915z
			 M10.193,26.786c0.099,0.017,0.244,0.023,0.423,0.023c0.521,0,1.002-0.191,1.002-0.759c0-0.533-0.458-0.753-1.009-0.753h-0.417
			V26.786z"/>
		<path fill="#FFFFFF" d="M13.002,25.859c0.012,0.689,0.452,0.973,0.962,0.973c0.365,0,0.585-0.064,0.776-0.145l0.087,0.365
			c-0.18,0.081-0.487,0.174-0.933,0.174c-0.862,0-1.378-0.568-1.378-1.414c0-0.845,0.498-1.512,1.314-1.512
			c0.915,0,1.158,0.805,1.158,1.321c0,0.105-0.012,0.186-0.017,0.238H13.002z M14.496,25.494c0.006-0.325-0.133-0.828-0.706-0.828
			c-0.516,0-0.741,0.475-0.782,0.828H14.496z"/>
		<path fill="#FFFFFF" d="M15.504,25.123c0-0.29-0.005-0.527-0.023-0.759h0.452l0.03,0.464h0.011
			c0.14-0.266,0.464-0.527,0.928-0.527c0.387,0,0.99,0.232,0.99,1.193v1.674h-0.509v-1.616c0-0.452-0.169-0.828-0.649-0.828
			c-0.335,0-0.597,0.237-0.683,0.521c-0.023,0.064-0.035,0.15-0.035,0.238v1.685h-0.51V25.123z"/>
		<path fill="#FFFFFF" d="M18.887,25.859c0.012,0.689,0.452,0.973,0.961,0.973c0.366,0,0.585-0.064,0.777-0.145l0.086,0.365
			c-0.179,0.081-0.486,0.174-0.932,0.174c-0.863,0-1.379-0.568-1.379-1.414c0-0.845,0.498-1.512,1.315-1.512
			c0.915,0,1.158,0.805,1.158,1.321c0,0.105-0.012,0.186-0.017,0.238H18.887z M20.381,25.494c0.005-0.325-0.134-0.828-0.706-0.828
			c-0.516,0-0.741,0.475-0.783,0.828H20.381z"/>
		<path fill="#FFFFFF" d="M21.44,27.168v-2.416h-0.394v-0.388h0.394v-0.151c0-0.741,0.435-1.222,1.223-1.222
			c0.261,0,0.568,0.081,0.713,0.186l-0.144,0.388c-0.122-0.087-0.342-0.162-0.592-0.162c-0.539,0-0.695,0.377-0.695,0.823v0.139
			h1.628v2.804h-0.505v-2.416h-1.123v2.416H21.44z"/>
		<path fill="#FFFFFF" d="M26.301,27.064c-0.134,0.069-0.429,0.162-0.806,0.162c-0.845,0-1.396-0.574-1.396-1.431
			c0-0.863,0.591-1.489,1.506-1.489c0.301,0,0.567,0.075,0.707,0.145l-0.117,0.394c-0.121-0.07-0.313-0.133-0.591-0.133
			c-0.643,0-0.991,0.475-0.991,1.06c0,0.649,0.418,1.048,0.974,1.048c0.29,0,0.481-0.075,0.626-0.139L26.301,27.064z"/>
		<path fill="#FFFFFF" d="M27.348,23.576c0.006,0.174-0.121,0.313-0.325,0.313c-0.179,0-0.307-0.139-0.307-0.313
			c0-0.179,0.134-0.318,0.318-0.318C27.227,23.258,27.348,23.397,27.348,23.576z M26.781,27.168v-2.804h0.51v2.804H26.781z"/>
		<path fill="#FFFFFF" d="M30.558,25.743c0,1.037-0.718,1.489-1.396,1.489c-0.759,0-1.344-0.556-1.344-1.442
			c0-0.939,0.613-1.489,1.39-1.489C30.013,24.301,30.558,24.886,30.558,25.743z M28.333,25.772c0,0.614,0.353,1.077,0.851,1.077
			c0.487,0,0.852-0.458,0.852-1.089c0-0.475-0.237-1.078-0.84-1.078C28.593,24.683,28.333,25.239,28.333,25.772z"/>
		<path fill="#FFFFFF" d="M31.015,26.647c0.151,0.099,0.417,0.203,0.672,0.203c0.37,0,0.544-0.185,0.544-0.417
			c0-0.243-0.145-0.377-0.522-0.516c-0.504-0.18-0.741-0.458-0.741-0.794c0-0.452,0.365-0.823,0.967-0.823
			c0.284,0,0.533,0.081,0.689,0.174l-0.127,0.371c-0.11-0.07-0.313-0.162-0.574-0.162c-0.301,0-0.469,0.174-0.469,0.382
			c0,0.232,0.168,0.336,0.533,0.475c0.487,0.186,0.736,0.429,0.736,0.846c0,0.492-0.383,0.84-1.049,0.84
			c-0.307,0-0.591-0.076-0.787-0.191L31.015,26.647z"/>
		<path fill="#FFFFFF" d="M34.895,23.693h-1.187v-0.429h2.89v0.429h-1.193v3.475h-0.51V23.693z"/>
		<path fill="#FFFFFF" d="M38.081,27.168l-0.04-0.353h-0.018c-0.156,0.22-0.457,0.417-0.857,0.417c-0.568,0-0.857-0.4-0.857-0.805
			c0-0.678,0.602-1.048,1.685-1.043v-0.058c0-0.232-0.064-0.649-0.637-0.649c-0.261,0-0.533,0.081-0.73,0.209l-0.116-0.336
			c0.231-0.151,0.567-0.249,0.921-0.249c0.857,0,1.066,0.585,1.066,1.147v1.049c0,0.243,0.012,0.48,0.047,0.672H38.081z
			 M38.006,25.737c-0.557-0.011-1.188,0.087-1.188,0.632c0,0.33,0.221,0.487,0.481,0.487c0.366,0,0.597-0.232,0.678-0.469
			c0.018-0.052,0.03-0.11,0.03-0.162V25.737z"/>
		<path fill="#FFFFFF" d="M39.204,25.239c0-0.33-0.005-0.615-0.022-0.875h0.446l0.018,0.55h0.022
			c0.128-0.377,0.435-0.614,0.776-0.614c0.058,0,0.099,0.006,0.145,0.017v0.481c-0.052-0.011-0.104-0.017-0.174-0.017
			c-0.36,0-0.614,0.272-0.683,0.654c-0.013,0.069-0.023,0.151-0.023,0.238v1.495h-0.505V25.239z"/>
		<path fill="#FFFFFF" d="M40.299,27.979c0.231-0.018,0.434-0.081,0.556-0.215c0.139-0.162,0.191-0.382,0.191-1.054v-2.346h0.51
			v2.543c0,0.545-0.087,0.898-0.336,1.153c-0.226,0.226-0.597,0.318-0.869,0.318L40.299,27.979z M41.614,23.576
			c0.006,0.169-0.116,0.313-0.318,0.313c-0.191,0-0.313-0.145-0.313-0.313c0-0.179,0.133-0.318,0.325-0.318
			C41.493,23.258,41.614,23.397,41.614,23.576z"/>
		<path fill="#FFFFFF" d="M42.558,25.859c0.012,0.689,0.452,0.973,0.962,0.973c0.365,0,0.585-0.064,0.776-0.145l0.087,0.365
			c-0.18,0.081-0.487,0.174-0.933,0.174c-0.862,0-1.378-0.568-1.378-1.414c0-0.845,0.498-1.512,1.314-1.512
			c0.915,0,1.158,0.805,1.158,1.321c0,0.105-0.012,0.186-0.017,0.238H42.558z M44.052,25.494c0.006-0.325-0.133-0.828-0.706-0.828
			c-0.515,0-0.741,0.475-0.782,0.828H44.052z"/>
		<path fill="#FFFFFF" d="M45.674,23.559v0.805h0.73v0.388h-0.73v1.512c0,0.348,0.098,0.545,0.382,0.545
			c0.134,0,0.231-0.017,0.296-0.035l0.023,0.382c-0.099,0.04-0.256,0.069-0.452,0.069c-0.238,0-0.429-0.076-0.55-0.214
			c-0.145-0.151-0.197-0.4-0.197-0.73v-1.529h-0.435v-0.388h0.435v-0.672L45.674,23.559z"/>
		<path fill="#FFFFFF" d="M48.414,27.168l-0.04-0.353h-0.018c-0.156,0.22-0.457,0.417-0.857,0.417c-0.567,0-0.857-0.4-0.857-0.805
			c0-0.678,0.602-1.048,1.685-1.043v-0.058c0-0.232-0.064-0.649-0.637-0.649c-0.261,0-0.533,0.081-0.73,0.209l-0.116-0.336
			c0.231-0.151,0.568-0.249,0.921-0.249c0.857,0,1.066,0.585,1.066,1.147v1.049c0,0.243,0.012,0.48,0.047,0.672H48.414z
			 M48.338,25.737c-0.557-0.011-1.188,0.087-1.188,0.632c0,0.33,0.221,0.487,0.481,0.487c0.366,0,0.597-0.232,0.678-0.469
			c0.018-0.052,0.03-0.11,0.03-0.162V25.737z"/>
		<path fill="#FFFFFF" d="M49.467,26.647c0.151,0.099,0.418,0.203,0.672,0.203c0.371,0,0.544-0.185,0.544-0.417
			c0-0.243-0.144-0.377-0.521-0.516c-0.504-0.18-0.741-0.458-0.741-0.794c0-0.452,0.365-0.823,0.967-0.823
			c0.284,0,0.533,0.081,0.689,0.174l-0.127,0.371c-0.11-0.07-0.313-0.162-0.574-0.162c-0.301,0-0.47,0.174-0.47,0.382
			c0,0.232,0.169,0.336,0.533,0.475c0.486,0.186,0.736,0.429,0.736,0.846c0,0.492-0.383,0.84-1.049,0.84
			c-0.307,0-0.591-0.076-0.788-0.191L49.467,26.647z"/>
		<path fill="#FFFFFF" d="M52.843,23.316c0.221-0.047,0.568-0.081,0.922-0.081c0.504,0,0.828,0.087,1.071,0.284
			c0.204,0.15,0.325,0.382,0.325,0.689c0,0.376-0.248,0.706-0.66,0.857v0.012c0.37,0.092,0.805,0.399,0.805,0.979
			c0,0.336-0.134,0.591-0.33,0.782c-0.273,0.249-0.713,0.364-1.35,0.364c-0.348,0-0.614-0.023-0.783-0.046V23.316z M53.348,24.915
			h0.457c0.533,0,0.845-0.278,0.845-0.654c0-0.458-0.347-0.637-0.857-0.637c-0.231,0-0.365,0.017-0.446,0.035V24.915z
			 M53.348,26.786c0.099,0.017,0.243,0.023,0.423,0.023c0.521,0,1.001-0.191,1.001-0.759c0-0.533-0.457-0.753-1.008-0.753h-0.417
			V26.786z"/>
		<path fill="#FFFFFF" d="M57.402,27.168l-0.04-0.353h-0.017c-0.157,0.22-0.458,0.417-0.858,0.417c-0.567,0-0.857-0.4-0.857-0.805
			c0-0.678,0.602-1.048,1.685-1.043v-0.058c0-0.232-0.064-0.649-0.637-0.649c-0.261,0-0.533,0.081-0.731,0.209l-0.116-0.336
			c0.232-0.151,0.567-0.249,0.921-0.249c0.858,0,1.066,0.585,1.066,1.147v1.049c0,0.243,0.012,0.48,0.047,0.672H57.402z
			 M57.327,25.737c-0.556-0.011-1.188,0.087-1.188,0.632c0,0.33,0.221,0.487,0.481,0.487c0.365,0,0.596-0.232,0.678-0.469
			c0.017-0.052,0.029-0.11,0.029-0.162V25.737z"/>
		<path fill="#FFFFFF" d="M58.526,25.123c0-0.29-0.006-0.527-0.023-0.759h0.452l0.03,0.464h0.011
			c0.139-0.266,0.464-0.527,0.927-0.527c0.388,0,0.991,0.232,0.991,1.193v1.674h-0.509v-1.616c0-0.452-0.169-0.828-0.649-0.828
			c-0.336,0-0.597,0.237-0.684,0.521c-0.022,0.064-0.034,0.15-0.034,0.238v1.685h-0.51V25.123z"/>
		<path fill="#FFFFFF" d="M63.623,27.064c-0.134,0.069-0.429,0.162-0.806,0.162c-0.845,0-1.396-0.574-1.396-1.431
			c0-0.863,0.591-1.489,1.506-1.489c0.301,0,0.567,0.075,0.707,0.145l-0.117,0.394c-0.121-0.07-0.313-0.133-0.591-0.133
			c-0.643,0-0.991,0.475-0.991,1.06c0,0.649,0.418,1.048,0.974,1.048c0.29,0,0.481-0.075,0.626-0.139L63.623,27.064z"/>
		<path fill="#FFFFFF" d="M66.606,25.743c0,1.037-0.719,1.489-1.397,1.489c-0.758,0-1.344-0.556-1.344-1.442
			c0-0.939,0.614-1.489,1.391-1.489C66.061,24.301,66.606,24.886,66.606,25.743z M64.382,25.772c0,0.614,0.353,1.077,0.851,1.077
			c0.487,0,0.852-0.458,0.852-1.089c0-0.475-0.238-1.078-0.84-1.078C64.642,24.683,64.382,25.239,64.382,25.772z"/>
		<path fill="#FFFFFF" d="M70.666,23.055v3.389c0,0.249,0.006,0.533,0.023,0.724h-0.457l-0.023-0.486h-0.012
			c-0.156,0.312-0.498,0.55-0.956,0.55c-0.678,0-1.2-0.573-1.2-1.425c-0.005-0.932,0.574-1.506,1.258-1.506
			c0.428,0,0.718,0.203,0.845,0.429h0.012v-1.674H70.666z M70.156,25.505c0-0.064-0.006-0.151-0.023-0.214
			c-0.075-0.324-0.353-0.591-0.736-0.591c-0.527,0-0.84,0.464-0.84,1.083c0,0.568,0.279,1.037,0.828,1.037
			c0.342,0,0.655-0.226,0.748-0.608c0.017-0.069,0.023-0.139,0.023-0.22V25.505z"/>
		<path fill="#FFFFFF" d="M71.68,25.859c0.012,0.689,0.452,0.973,0.961,0.973c0.365,0,0.585-0.064,0.776-0.145l0.087,0.365
			c-0.179,0.081-0.487,0.174-0.932,0.174c-0.863,0-1.379-0.568-1.379-1.414c0-0.845,0.498-1.512,1.314-1.512
			c0.915,0,1.159,0.805,1.159,1.321c0,0.105-0.012,0.186-0.018,0.238H71.68z M73.174,25.494c0.005-0.325-0.134-0.828-0.707-0.828
			c-0.515,0-0.741,0.475-0.782,0.828H73.174z"/>
		<path fill="#FFFFFF" d="M78.04,27.041c-0.186,0.093-0.557,0.186-1.031,0.186c-1.101,0-1.929-0.695-1.929-1.976
			c0-1.222,0.828-2.05,2.039-2.05c0.487,0,0.794,0.104,0.927,0.174l-0.122,0.411c-0.191-0.092-0.463-0.162-0.787-0.162
			c-0.915,0-1.524,0.585-1.524,1.611c0,0.956,0.55,1.57,1.501,1.57c0.307,0,0.62-0.064,0.822-0.162L78.04,27.041z"/>
		<path fill="#FFFFFF" d="M78.536,23.055h0.51v1.75h0.012c0.082-0.145,0.209-0.273,0.365-0.36c0.151-0.087,0.33-0.145,0.522-0.145
			c0.377,0,0.978,0.232,0.978,1.2v1.668h-0.509v-1.611c0-0.452-0.169-0.834-0.649-0.834c-0.33,0-0.591,0.232-0.683,0.51
			c-0.03,0.069-0.035,0.145-0.035,0.243v1.692h-0.51V23.055z"/>
		<path fill="#FFFFFF" d="M82.202,23.576c0.006,0.174-0.121,0.313-0.324,0.313c-0.18,0-0.308-0.139-0.308-0.313
			c0-0.179,0.134-0.318,0.319-0.318C82.081,23.258,82.202,23.397,82.202,23.576z M81.635,27.168v-2.804h0.51v2.804H81.635z"/>
		<path fill="#FFFFFF" d="M82.874,23.055h0.51v4.113h-0.51V23.055z"/>
		<path fill="#FFFFFF" d="M84.409,25.859c0.012,0.689,0.452,0.973,0.962,0.973c0.364,0,0.585-0.064,0.776-0.145l0.087,0.365
			c-0.179,0.081-0.486,0.174-0.932,0.174c-0.863,0-1.379-0.568-1.379-1.414c0-0.845,0.498-1.512,1.315-1.512
			c0.915,0,1.158,0.805,1.158,1.321c0,0.105-0.012,0.186-0.017,0.238H84.409z M85.904,25.494c0.005-0.325-0.134-0.828-0.706-0.828
			c-0.515,0-0.741,0.475-0.783,0.828H85.904z"/>
	</g>
	<path fill="#FFFFFF" d="M86.19,19.817h-8.145V4.974h-1.524v16.164h9.669V19.817z M73.475,19.801h-9.13v-6.329h8.137v-1.33h-8.137
		V6.337h8.794V4.974H62.805v16.164h10.67V19.801z M58.713,4.974L53.437,19.48L48.346,4.974h-1.64l5.915,16.164h1.59l6.034-16.164
		H58.713z M37.395,14.718l3.196-8.137l3.349,8.137H37.395z M41.407,4.974h-1.598l-6.572,16.164h1.657l2.028-5.149h7.541l2.103,5.149
		h1.725L41.407,4.974z M24.711,6.329c0.781,0,1.436,0.059,1.965,0.177c0.53,0.118,0.963,0.323,1.295,0.615
		c0.334,0.291,0.576,0.616,0.724,0.975c0.148,0.359,0.223,0.76,0.223,1.204c0,2.058-1.428,3.088-4.284,3.088h-4.258V6.329H24.711z
		 M28.802,16.384c-0.825-1.268-1.813-2.196-2.962-2.785c3.124-0.303,4.687-1.742,4.687-4.318c0-0.909-0.194-1.681-0.581-2.318
		c-0.387-0.637-0.944-1.128-1.67-1.473c-0.726-0.346-1.606-0.517-2.638-0.517h-6.8v16.164h1.54v-7.43h2.331
		c0.634,0,1.213,0.111,1.737,0.333c0.524,0.221,0.98,0.537,1.367,0.946c0.387,0.409,1.033,1.321,1.936,2.734l2.179,3.416h1.953
		L28.802,16.384z M16.239,4.974H4.795v1.413h4.939v14.751h1.548V6.387h4.957V4.974z"/>
</g>
<g>
	<g>
		<path fill-rule="evenodd" clip-rule="evenodd" fill="#FFFFFF" d="M254.303-66.066l-1.23-1.24v-4.599l-0.777-0.779l-0.83,0.779
			v3.964l0.663,0.627l-1.284,1.297l-1.258-1.279v-4.794l-0.688-0.8l1.553-1.629l1.413,1.266l1.487-1.295l1.614,1.606v4.903
			l0.69,0.639L254.303-66.066z M265.269-66.178l-2.643-1.135v-5.913l2.437-1.378l2.725,1.304v5.798L265.269-66.178z M285.506-67.943
			c-0.493-0.316-1.086,0.694-1.69,0.403l-1.765-0.755l-0.011-1.03l3.411-2.523l-2.32-2.687l-2.772,1.371l-0.002,5.911l2.589,1.077
			L285.506-67.943z M265.85-72.504v4.891l-1.476-0.614v-4.946L265.85-72.504z M283.647-71.174l-1.608,1.127v-3.07L283.647-71.174z
			 M308.534-76.534l1.288-1.307l1.323,1.339l-1.286,1.282L308.534-76.534z M275.165-76.825c-0.442-0.125-0.734,0.369-1.118,0.08
			l2.487-1.156l2.508,1.085l-0.001,9.314l-2.519,1.324l-2.644-1.135v-5.913l2.439-1.378l0.856,0.411v-1.674L275.165-76.825z
			 M305.851-64.38v-7.525l-0.672-0.779l-0.721,0.779v3.964l0.623,0.627l-1.283,1.297l-1.255-1.279v-8.626
			c0,0,1.912-1.985,1.915-1.902v4.851l1.706-1.596l1.582,1.627v6.68L305.851-64.38z M311.01-68.115l0.655,0.696l-1.387,1.401
			l-1.258-1.279v-5.247l-0.506-0.54l1.266-1.333l1.23,1.124V-68.115z M314.424-77.787v9.672l0.656,0.696l-1.389,1.401l-1.256-1.279
			v-8.731L314.424-77.787z M321.177-67.943c-0.492-0.316-1.085,0.694-1.689,0.403l-1.764-0.755l-0.012-1.03l3.411-2.523
			l-2.321-2.687l-2.771,1.371l-0.002,5.911l2.591,1.077L321.177-67.943z M319.32-71.174l-1.609,1.127v-3.07L319.32-71.174z
			 M277.172-72.504v4.891l-1.476-0.614v-4.946L277.172-72.504z"/>
	</g>
	<path fill-rule="evenodd" clip-rule="evenodd" fill="#FFFFFF" d="M302.833-77.501c0.055-0.114-0.124-0.095-0.248,0.06
		c-0.975,0.975-1.548-0.747-2.392-1.011c-1.879-0.611-3.263,1.527-4.736,2.32v6.743l-0.557,0.544
		c-1.088-0.923-1.606-2.332-1.845-3.733c-0.447-2.892,2.304-4.878,4.634-6.057c-2.296,0-4.49,0.97-5.943,3.12
		c-1.109,1.697-1.132,4.428-0.402,6.178c1.148,2.765,4.401,4.086,7.216,3.162c1.295-0.465,2.444-1.603,2.704-2.934
		c-0.727,0.09-1.308,0.911-2.08,0.892l-0.008-7.528C300.793-75.436,302.081-76.759,302.833-77.501z M298.68-68.067
		c-1.182,0.412-2.463-0.07-3.448-0.712l2.743-2.043v-6.408l0.705,0.576V-68.067z"/>
	<path fill-rule="evenodd" clip-rule="evenodd" fill="#FFFFFF" d="M262.124-73.184l-1.31,0.967l-2.215-0.955v4.739l2.192,1.023
		c0.283-0.037,0.636-0.268,1.003-0.533l0.178,0.053l-2.087,1.578c-0.235,0.143-0.493,0.133-0.779,0l-2.53-1.173v-5.69l2.797-1.312
		L262.124-73.184z"/>
	<path fill-rule="evenodd" clip-rule="evenodd" fill="#FFFFFF" d="M247.645-68.465v-4.966l-2.545-1.131l-2.546,1.266l0.124,0.127
		c0.424-0.246,0.947-0.455,1.192-0.338l1.787,0.751c0.128,0.079,0.194,0.176,0.251,0.282v1.169l-1.222-0.538l-2.593,1.374v3.071
		l2.489,1.184l1.976-0.764l1.086,0.908l1.149-1.194L247.645-68.465z M245.909-67.276l-2.153-0.953v-2.414l2.153,1.011V-67.276z"/>
	<path fill-rule="evenodd" clip-rule="evenodd" fill="#FFFFFF" d="M229.673-69.371c-0.054-0.456,0.495-0.28,0.495-1.049v-5.125
		c0.696-0.928,2.008-1.394,2.757-2.209c-1.034-0.923-2.933-0.81-4.12-0.285c1.149-1.139,2.676-1.876,4.406-1.938
		c1.172-0.078,2.208,0.788,3.223,0.37l0.204,0.089l-3.93,2.827v5.339L229.673-69.371z"/>
	<path fill-rule="evenodd" clip-rule="evenodd" fill="#FFFFFF" d="M241.065-71.89c-0.128-1.398-1.725-1.49-2.74-1.695
		c0.876-0.631,1.986-1.17,2.626-2.099c0.583-0.901-1.053-2.713-1.893-4.013l-0.719-0.189l-4.947,3.54v6.03
		c0,0.734-0.391,0.525-0.372,0.93l3.129-2.089v-5.96l0.831-0.618v9.335l-1.682-0.436c-2.332-0.29-4.483,0.763-5.81,2.399
		c2.147-0.999,4.984-0.751,6.953,0.588l4.324-3.055C241.453-69.871,241.04-71.053,241.065-71.89z M237.945-68.286l-0.297-0.17
		v-4.311c0.334,0.01,0.539,0.408,0.527,0.798c0,0,0.029,3.038,0.029,3.321C238.204-68.363,237.945-68.286,237.945-68.286z
		 M237.648-74.158v-2.789C238.467-76.366,239.22-74.559,237.648-74.158z"/>
</g>
<g>
	<path fill-rule="evenodd" clip-rule="evenodd" fill="#FFFFFF" d="M414.996-67.324l-0.068,0.07
		c-0.885,0.887-1.907,1.364-2.996,1.364c-2.247,0-3.882-1.638-3.882-3.958c0-2.388,1.635-4.026,3.882-4.026
		c1.089,0,2.111,0.477,2.996,1.365l0.068,0.069l1.43-1.707v-0.068c-1.225-1.432-2.656-2.116-4.426-2.116
		c-1.771,0-3.406,0.615-4.563,1.706c-1.294,1.16-1.907,2.798-1.907,4.777c0,1.911,0.613,3.549,1.907,4.709
		c1.158,1.091,2.792,1.705,4.563,1.705c1.769,0,3.2-0.682,4.426-2.115v-0.068L414.996-67.324z"/>
	<rect x="417.992" y="-76.127" fill-rule="evenodd" clip-rule="evenodd" fill="#FFFFFF" width="2.52" height="12.42"/>
	<path fill-rule="evenodd" clip-rule="evenodd" fill="#FFFFFF" d="M430.046-66.368c-0.613,0.408-1.295,0.614-1.839,0.614
		c-0.817,0-1.226-0.41-1.226-1.432v-6.552h2.588v-2.388h-2.588v-3.89l-2.452,1.365v2.524h-2.178v2.388h2.178v7.03
		c0,1.91,1.091,3.206,2.793,3.206c1.157,0.068,1.839-0.272,2.247-0.546h0.068v-0.068l0.613-2.388L430.046-66.368z"/>
	<rect x="431.884" y="-76.127" fill-rule="evenodd" clip-rule="evenodd" fill="#FFFFFF" width="2.588" height="12.42"/>
	<path fill="#FFFFFF" d="M426.214-80.95c2.803,0,5.342,1.12,7.206,2.933h3.329c-2.335-3.313-6.178-5.482-10.534-5.482
		c-4.355,0-8.198,2.17-10.534,5.482h3.329C420.873-79.83,423.412-80.95,426.214-80.95"/>
	<path fill="#FFFFFF" d="M437.391-78.644c0-0.814,0.629-1.449,1.442-1.449c0.809,0,1.432,0.623,1.432,1.434
		c0,0.815-0.634,1.45-1.443,1.45C438.009-77.208,437.391-77.831,437.391-78.644 M439.977-78.644c0-0.676-0.492-1.186-1.154-1.186
		c-0.66,0-1.144,0.499-1.144,1.171c0,0.676,0.491,1.186,1.154,1.186C439.492-77.472,439.977-77.971,439.977-78.644 M438.259-79.466
		h0.607c0.379,0,0.607,0.166,0.607,0.511c0,0.248-0.117,0.383-0.288,0.455l0.307,0.601h-0.393l-0.277-0.552h-0.191v0.552h-0.371
		V-79.466z M438.844-78.722c0.177,0,0.263-0.063,0.263-0.209c0-0.139-0.086-0.203-0.263-0.203h-0.213v0.412H438.844z"/>
</g>
<g>
	<polygon fill="#FFFFFF" points="370.852,-68.923 370.852,-69.187 368.703,-69.187 368.703,-70.846 370.683,-70.846 370.683,-71.11 
		368.703,-71.11 368.703,-72.499 370.852,-72.499 370.852,-72.763 368.196,-72.763 368.196,-68.923 	"/>
	<polygon fill="#FFFFFF" points="370.852,-68.923 370.852,-69.187 368.703,-69.187 368.703,-70.846 370.683,-70.846 370.683,-71.11 
		368.703,-71.11 368.703,-72.499 370.852,-72.499 370.852,-72.763 368.196,-72.763 368.196,-68.923 	"/>
	<path fill-rule="evenodd" clip-rule="evenodd" fill="#FFFFFF" d="M375.078-70.946c0,1.257-0.771,1.806-1.669,1.806h-0.834v-3.417
		h0.977C374.502-72.557,375.078-72.04,375.078-70.946z M375.617-70.946c0-1.12-0.544-1.817-1.79-1.817h-1.764v3.839h1.489
		C374.883-68.924,375.617-69.858,375.617-70.946z"/>
	<path fill="#FFFFFF" d="M375.078-70.946c0,1.257-0.771,1.806-1.669,1.806h-0.834v-3.417h0.977
		C374.502-72.557,375.078-72.04,375.078-70.946z M375.617-70.946c0-1.12-0.544-1.817-1.79-1.817h-1.764v3.839h1.489
		C374.883-68.924,375.617-69.858,375.617-70.946z"/>
	<polygon fill="#FFFFFF" points="381.968,-72.763 381.593,-72.763 380.584,-69.536 380.531,-69.536 379.496,-72.763 
		379.095,-72.763 378.007,-69.536 377.959,-69.536 376.956,-72.763 376.454,-72.763 377.642,-68.924 378.049,-68.924 
		379.148,-72.087 379.195,-72.087 380.199,-68.924 380.626,-68.924 	"/>
	<polygon fill="#FFFFFF" points="381.968,-72.763 381.593,-72.763 380.584,-69.536 380.531,-69.536 379.496,-72.763 
		379.095,-72.763 378.007,-69.536 377.959,-69.536 376.956,-72.763 376.454,-72.763 377.642,-68.924 378.049,-68.924 
		379.148,-72.087 379.195,-72.087 380.199,-68.924 380.626,-68.924 	"/>
	<path fill-rule="evenodd" clip-rule="evenodd" fill="#FFFFFF" d="M384.574-70.687h-1.262l0.618-1.468L384.574-70.687z
		 M385.831-68.924l-1.706-3.913h-0.127l-1.774,3.913h0.407l0.586-1.521h1.436l0.592,1.521H385.831z"/>
	<path fill="#FFFFFF" d="M384.574-70.687h-1.262l0.618-1.468L384.574-70.687z M385.831-68.924l-1.706-3.913h-0.127l-1.774,3.913
		h0.407l0.586-1.521h1.436l0.592,1.521H385.831z"/>
	<path fill-rule="evenodd" clip-rule="evenodd" fill="#FFFFFF" d="M388.89-71.881c0,0.586-0.56,0.845-1.051,0.845h-0.459v-1.51
		h0.776C388.599-72.547,388.89-72.314,388.89-71.881z M389.645-68.924l-1.574-1.943c0.676-0.085,1.326-0.354,1.326-1.014
		c0-0.502-0.296-0.882-1.231-0.882h-1.294v3.839h0.507v-1.896h0.095l1.511,1.896H389.645z"/>
	<path fill="#FFFFFF" d="M388.89-71.881c0,0.586-0.56,0.845-1.051,0.845h-0.459v-1.51h0.776
		C388.599-72.547,388.89-72.314,388.89-71.881z M389.645-68.924l-1.574-1.943c0.676-0.085,1.326-0.354,1.326-1.014
		c0-0.502-0.296-0.882-1.231-0.882h-1.294v3.839h0.507v-1.896h0.095l1.511,1.896H389.645z"/>
	<path fill-rule="evenodd" clip-rule="evenodd" fill="#FFFFFF" d="M393.702-70.946c0,1.257-0.771,1.806-1.669,1.806h-0.835v-3.417
		h0.977C393.127-72.557,393.702-72.04,393.702-70.946z M394.241-70.946c0-1.12-0.544-1.817-1.79-1.817h-1.764v3.839h1.489
		C393.507-68.924,394.241-69.858,394.241-70.946z"/>
	<path fill="#FFFFFF" d="M393.702-70.946c0,1.257-0.771,1.806-1.669,1.806h-0.835v-3.417h0.977
		C393.127-72.557,393.702-72.04,393.702-70.946z M394.241-70.946c0-1.12-0.544-1.817-1.79-1.817h-1.764v3.839h1.489
		C393.507-68.924,394.241-69.858,394.241-70.946z"/>
	<path fill="#FFFFFF" d="M397.561-70.038c0-0.639-0.48-0.898-0.94-1.083c-0.444-0.174-0.856-0.306-0.856-0.803
		c0-0.386,0.322-0.671,0.729-0.671c0.338,0,0.581,0.169,0.692,0.496h0.053l0.158-0.46c-0.217-0.19-0.491-0.28-0.84-0.28
		c-0.671,0-1.225,0.349-1.225,1.072c0,0.708,0.602,0.893,1.104,1.088c0.37,0.153,0.666,0.348,0.666,0.755
		c0,0.444-0.344,0.829-0.85,0.829c-0.407,0-0.692-0.243-0.866-0.597h-0.042l-0.116,0.507c0.264,0.169,0.565,0.333,0.935,0.333
		C396.906-68.85,397.561-69.214,397.561-70.038z"/>
	<path fill="#FFFFFF" d="M397.561-70.038c0-0.639-0.48-0.898-0.94-1.083c-0.444-0.174-0.856-0.306-0.856-0.803
		c0-0.386,0.322-0.671,0.729-0.671c0.338,0,0.581,0.169,0.692,0.496h0.053l0.158-0.46c-0.217-0.19-0.491-0.28-0.84-0.28
		c-0.671,0-1.225,0.349-1.225,1.072c0,0.708,0.602,0.893,1.104,1.088c0.37,0.153,0.666,0.348,0.666,0.755
		c0,0.444-0.344,0.829-0.85,0.829c-0.407,0-0.692-0.243-0.866-0.597h-0.042l-0.116,0.507c0.264,0.169,0.565,0.333,0.935,0.333
		C396.906-68.85,397.561-69.214,397.561-70.038z"/>
	<path fill-rule="evenodd" clip-rule="evenodd" fill="#FFFFFF" d="M345.993-70.019c0,0.65-0.512,0.908-0.914,0.908h-1.032v-1.753
		h0.968C345.501-70.864,345.993-70.6,345.993-70.019z M345.882-71.83c0,0.48-0.454,0.75-0.866,0.75h-0.968v-1.437h0.984
		C345.538-72.517,345.882-72.342,345.882-71.83z M346.521-70.066c0-0.597-0.449-0.861-1.046-0.914
		c0.481-0.137,0.903-0.444,0.903-0.951c0-0.618-0.491-0.803-1.12-0.803h-1.718v3.839h1.539
		C345.993-68.894,346.521-69.385,346.521-70.066z"/>
	<path fill="#FFFFFF" d="M345.993-70.019c0,0.65-0.512,0.908-0.914,0.908h-1.032v-1.753h0.968
		C345.501-70.864,345.993-70.6,345.993-70.019z M345.882-71.83c0,0.48-0.454,0.75-0.866,0.75h-0.968v-1.437h0.984
		C345.538-72.517,345.882-72.342,345.882-71.83z M346.521-70.066c0-0.597-0.449-0.861-1.046-0.914
		c0.481-0.137,0.903-0.444,0.903-0.951c0-0.618-0.491-0.803-1.12-0.803h-1.718v3.839h1.539
		C345.993-68.894,346.521-69.385,346.521-70.066z"/>
	<path fill-rule="evenodd" clip-rule="evenodd" fill="#FFFFFF" d="M349.418-70.67h-1.262l0.618-1.468L349.418-70.67z
		 M350.675-68.907l-1.706-3.913h-0.127l-1.775,3.913h0.407l0.586-1.521h1.436l0.591,1.521H350.675z"/>
	<path fill="#FFFFFF" d="M349.418-70.67h-1.262l0.618-1.468L349.418-70.67z M350.675-68.907l-1.706-3.913h-0.127l-1.775,3.913h0.407
		l0.586-1.521h1.436l0.591,1.521H350.675z"/>
	<polygon fill="#FFFFFF" points="355.028,-68.907 355.028,-72.746 354.706,-72.746 354.706,-69.788 351.864,-72.746 
		351.716,-72.746 351.716,-68.907 352.044,-68.907 352.044,-71.869 354.885,-68.907 	"/>
	<polygon fill="#FFFFFF" points="355.028,-68.907 355.028,-72.746 354.706,-72.746 354.706,-69.788 351.864,-72.746 
		351.716,-72.746 351.716,-68.907 352.044,-68.907 352.044,-71.869 354.885,-68.907 	"/>
	<path fill="#FFFFFF" d="M359.491-72.561c-0.338-0.148-0.755-0.259-1.267-0.259c-1.225,0-2.107,0.771-2.107,2.018
		c0,1.104,0.681,1.97,2.038,1.97c0.486,0,0.887-0.1,1.23-0.317v-0.364h-0.063c-0.201,0.227-0.644,0.454-1.099,0.454
		c-1.056,0-1.552-0.818-1.552-1.743c0-1.104,0.634-1.785,1.552-1.785c0.465,0,0.766,0.142,1.077,0.449h0.069L359.491-72.561z"/>
	<path fill="#FFFFFF" d="M359.491-72.561c-0.338-0.148-0.755-0.259-1.267-0.259c-1.225,0-2.107,0.771-2.107,2.018
		c0,1.104,0.681,1.97,2.038,1.97c0.486,0,0.887-0.1,1.23-0.317v-0.364h-0.063c-0.201,0.227-0.644,0.454-1.099,0.454
		c-1.056,0-1.552-0.818-1.552-1.743c0-1.104,0.634-1.785,1.552-1.785c0.465,0,0.766,0.142,1.077,0.449h0.069L359.491-72.561z"/>
	<path fill-rule="evenodd" clip-rule="evenodd" fill="#FFFFFF" d="M364.259-70.913c0,0.956-0.507,1.885-1.632,1.885
		c-0.882,0-1.542-0.634-1.542-1.732c0-0.972,0.491-1.875,1.616-1.875C363.678-72.635,364.259-71.933,364.259-70.913z
		 M364.808-70.913c0-1.32-1.062-1.912-2.107-1.912c-1.246,0-2.165,0.724-2.165,2.065c0,1.072,0.771,1.928,2.086,1.928
		C363.963-68.832,364.808-69.651,364.808-70.913z"/>
	<path fill="#FFFFFF" d="M364.259-70.913c0,0.956-0.507,1.885-1.632,1.885c-0.882,0-1.542-0.634-1.542-1.732
		c0-0.972,0.491-1.875,1.616-1.875C363.678-72.635,364.259-71.933,364.259-70.913z M364.808-70.913c0-1.32-1.062-1.912-2.107-1.912
		c-1.246,0-2.165,0.724-2.165,2.065c0,1.072,0.771,1.928,2.086,1.928C363.963-68.832,364.808-69.651,364.808-70.913z"/>
</g>
</svg>
