<?xml version="1.0" encoding="UTF-8"?>
<svg width="90px" height="16px" viewBox="0 0 90 16" version="1.1" xmlns="http://www.w3.org/2000/svg" xmlns:xlink="http://www.w3.org/1999/xlink">
    <!-- Generator: Sketch 43.2 (39069) - http://www.bohemiancoding.com/sketch -->
    <title>logo-banco-chile</title>
    <desc>Created with Sketch.</desc>
    <defs></defs>
    <g id="Page-1" stroke="none" stroke-width="1" fill="none" fill-rule="evenodd">
        <g id="logo-banco-chile" fill="#FFFFFF">
            <path d="M25.133,13.854 L23.94,12.651 L23.94,8.191 L23.187,7.435 L22.382,8.191 L22.382,12.035 L23.025,12.643 L21.78,13.9 L20.56,12.659 L20.56,8.009 L19.893,7.233 L21.399,5.653 L22.77,6.881 L24.212,5.625 L25.777,7.183 L25.777,11.938 L26.446,12.558 L25.133,13.854 Z M35.769,13.745 L33.206,12.645 L33.206,6.91 L35.57,5.574 L38.213,6.839 L38.213,12.462 L35.769,13.745 Z M55.396,12.034 C54.918,11.727 54.343,12.707 53.757,12.425 L52.045,11.693 L52.034,10.694 L55.342,8.247 L53.092,5.641 L50.403,6.97 L50.401,12.703 L52.912,13.748 L55.396,12.034 Z M36.332,7.61 L36.332,12.353 L34.9,11.758 L34.9,6.96 L36.332,7.61 Z M53.593,8.899 L52.033,9.992 L52.033,7.015 L53.593,8.899 Z M77.73,3.701 L78.979,2.433 L80.262,3.732 L79.015,4.976 L77.73,3.701 Z M45.366,3.419 C44.937,3.298 44.654,3.777 44.282,3.497 L46.694,2.376 L49.126,3.428 L49.125,12.461 L46.681,13.745 L44.117,12.645 L44.117,6.91 L46.482,5.574 L47.312,5.973 L47.312,4.349 L45.366,3.419 Z M75.127,15.489 L75.127,8.191 L74.475,7.435 L73.776,8.191 L73.776,12.035 L74.38,12.643 L73.136,13.9 L71.919,12.659 L71.919,4.294 C71.919,4.294 73.773,2.369 73.776,2.449 L73.776,7.154 L75.43,5.607 L76.964,7.185 L76.964,13.664 L75.127,15.489 Z M80.132,11.867 L80.767,12.542 L79.422,13.9 L78.202,12.659 L78.202,7.571 L77.711,7.048 L78.938,5.756 L80.131,6.846 L80.131,11.867 L80.132,11.867 Z M83.443,2.486 L83.443,11.866 L84.079,12.541 L82.732,13.9 L81.514,12.659 L81.514,4.192 L83.443,2.486 Z M89.992,12.034 C89.514,11.727 88.94,12.707 88.353,12.425 L86.642,11.693 L86.63,10.694 L89.938,8.247 L87.687,5.641 L85.001,6.97 L84.999,12.703 L87.511,13.748 L89.992,12.034 Z M88.191,8.899 L86.631,9.992 L86.631,7.015 L88.191,8.899 Z M47.313,7.61 L47.313,12.353 L45.882,11.757 L45.882,6.96 L47.313,7.61 Z" id="Shape"></path>
            <path d="M72.201,2.764 C72.254,2.653 72.081,2.672 71.961,2.823 C71.015,3.768 70.46,2.098 69.641,1.842 C67.818,1.25 66.477,3.323 65.048,4.092 L65.048,10.631 L64.508,11.159 C63.453,10.264 62.95,8.898 62.718,7.539 C62.284,4.734 64.952,2.808 67.213,1.664 C64.986,1.664 62.858,2.605 61.449,4.69 C60.373,6.336 60.351,8.985 61.059,10.682 C62.173,13.364 65.327,14.644 68.058,13.749 C69.314,13.298 70.428,12.194 70.68,10.903 C69.974,10.991 69.412,11.786 68.662,11.768 L68.654,4.467 C70.222,4.767 71.472,3.483 72.201,2.764 Z M68.173,11.913 C67.027,12.312 65.784,11.845 64.829,11.222 L67.489,9.241 L67.489,3.026 L68.173,3.584 L68.173,11.913 Z" id="Shape"></path>
            <path d="M32.719,6.951 L31.448,7.889 L29.3,6.962 L29.3,11.558 L31.426,12.55 C31.701,12.514 32.043,12.291 32.398,12.033 L32.571,12.084 L30.547,13.614 C30.319,13.753 30.069,13.743 29.792,13.614 L27.339,12.476 L27.339,6.958 L30.052,5.685 L32.719,6.951 Z" id="Shape"></path>
            <path d="M18.676,11.527 L18.676,6.71 L16.208,5.613 L13.739,6.841 L13.859,6.964 C14.27,6.725 14.777,6.523 15.015,6.637 L16.748,7.365 C16.872,7.442 16.937,7.536 16.991,7.638 L16.991,8.772 L15.806,8.251 L13.292,9.584 L13.292,12.562 L15.706,13.71 L17.622,12.969 L18.675,13.849 L19.789,12.691 L18.676,11.527 Z M16.992,12.68 L14.904,11.756 L14.904,9.415 L16.992,10.395 L16.992,12.68 Z" id="Shape"></path>
            <path d="M1.245,10.649 C1.193,10.207 1.725,10.377 1.725,9.632 L1.725,4.661 C2.4,3.761 3.672,3.309 4.399,2.519 C3.397,1.623 1.555,1.733 0.404,2.242 C1.518,1.138 2.999,0.423 4.677,0.363 C5.814,0.287 6.818,1.127 7.803,0.722 L8.001,0.808 L4.189,3.55 L4.189,8.728 L1.245,10.649 Z" id="Shape"></path>
            <path d="M12.294,8.206 C12.17,6.85 10.621,6.761 9.636,6.562 C10.486,5.95 11.562,5.428 12.182,4.526 C12.747,3.652 11.161,1.895 10.346,0.634 L9.649,0.45 L4.851,3.883 L4.851,9.731 C4.851,10.443 4.472,10.241 4.491,10.633 L7.526,8.607 L7.526,2.826 L8.332,2.227 L8.332,11.281 L6.701,10.858 C4.439,10.577 2.353,11.598 1.066,13.185 C3.148,12.216 5.9,12.457 7.81,13.756 L12.003,10.793 C12.67,10.163 12.27,9.017 12.294,8.206 Z M9.268,11.701 L8.98,11.536 L8.98,7.355 C9.304,7.364 9.503,7.751 9.492,8.129 C9.492,8.129 9.52,11.075 9.52,11.35 C9.52,11.626 9.268,11.701 9.268,11.701 Z M8.98,6.006 L8.98,3.301 C9.774,3.864 10.504,5.617 8.98,6.006 Z" id="Shape"></path>
        </g>
    </g>
</svg>