<?xml version="1.0" encoding="utf-8"?>
<!-- Generator: Adobe Illustrator 17.0.0, SVG Export Plug-In . SVG Version: 6.00 Build 0)  -->
<!DOCTYPE svg PUBLIC "-//W3C//DTD SVG 1.1//EN" "http://www.w3.org/Graphics/SVG/1.1/DTD/svg11.dtd" [
	<!ENTITY ns_extend "http://ns.adobe.com/Extensibility/1.0/">
	<!ENTITY ns_ai "http://ns.adobe.com/AdobeIllustrator/10.0/">
	<!ENTITY ns_graphs "http://ns.adobe.com/Graphs/1.0/">
	<!ENTITY ns_vars "http://ns.adobe.com/Variables/1.0/">
	<!ENTITY ns_imrep "http://ns.adobe.com/ImageReplacement/1.0/">
	<!ENTITY ns_sfw "http://ns.adobe.com/SaveForWeb/1.0/">
	<!ENTITY ns_custom "http://ns.adobe.com/GenericCustomNamespace/1.0/">
	<!ENTITY ns_adobe_xpath "http://ns.adobe.com/XPath/1.0/">
]>
<svg version="1.1" id="Capa_1" xmlns:x="&ns_extend;" xmlns:i="&ns_ai;" xmlns:graph="&ns_graphs;"
	 xmlns="http://www.w3.org/2000/svg" xmlns:xlink="http://www.w3.org/1999/xlink" x="0px" y="0px" width="35.333px"
	 height="49.667px" viewBox="0 0 35.333 49.667" enable-background="new 0 0 35.333 49.667" xml:space="preserve">
<metadata>
	<sfw  xmlns="&ns_sfw;">
		<slices></slices>
		<sliceSourceBounds  width="1280" height="780" bottomLeftOrigin="true" y="-392.333" x="-823.333"></sliceSourceBounds>
	</sfw>
</metadata>
<g>
	<g>
		<defs>
			<rect id="SVGID_1_" x="6.667" y="27.334" width="21.998" height="15.015"/>
		</defs>
		<clipPath id="SVGID_2_">
			<use xlink:href="#SVGID_1_"  overflow="visible"/>
		</clipPath>
		<g clip-path="url(#SVGID_2_)">
			<defs>
				<rect id="SVGID_3_" x="-823.333" y="-387.667" width="1280" height="780"/>
			</defs>
			<clipPath id="SVGID_4_">
				<use xlink:href="#SVGID_3_"  overflow="visible"/>
			</clipPath>
			<g clip-path="url(#SVGID_4_)" enable-background="new    ">
				<g>
					<defs>
						<rect id="SVGID_5_" x="6.667" y="27.333" width="22" height="15"/>
					</defs>
					<clipPath id="SVGID_6_">
						<use xlink:href="#SVGID_5_"  overflow="visible"/>
					</clipPath>
					<g clip-path="url(#SVGID_6_)">
						<defs>
							<path id="SVGID_7_" d="M28.55,35.195c-0.047,0.048-0.102,0.082-0.16,0.104l-7.904,6.911c-0.186,0.185-0.487,0.185-0.672,0
								c-0.187-0.186-0.187-0.485,0-0.672l7.09-6.198H7.167c-0.276,0-0.5-0.223-0.5-0.498c0-0.277,0.224-0.499,0.5-0.499h19.736
								l-7.09-6.199c-0.187-0.185-0.187-0.485,0-0.671c0.185-0.186,0.486-0.186,0.672,0l7.904,6.911
								c0.059,0.022,0.113,0.058,0.16,0.104c0.032,0.031,0.027,0.078,0.048,0.115c0.018,0.03,0.03,0.063,0.04,0.096
								c0.005,0.016,0,0.029,0.004,0.043C28.685,34.902,28.675,35.07,28.55,35.195"/>
						</defs>
						<clipPath id="SVGID_8_">
							<use xlink:href="#SVGID_7_"  overflow="visible"/>
						</clipPath>
						<g clip-path="url(#SVGID_8_)">
							<defs>
								<rect id="SVGID_9_" x="6.667" y="27.333" width="22" height="15"/>
							</defs>
							<clipPath id="SVGID_10_">
								<use xlink:href="#SVGID_9_"  overflow="visible"/>
							</clipPath>
							<rect x="1.667" y="22.333" clip-path="url(#SVGID_10_)" fill="#5E89C6" width="31.998" height="25.015"/>
						</g>
					</g>
				</g>
			</g>
		</g>
	</g>
	<g>
		<defs>
			<rect id="SVGID_11_" x="6.669" y="7.318" width="21.998" height="15.015"/>
		</defs>
		<clipPath id="SVGID_12_">
			<use xlink:href="#SVGID_11_"  overflow="visible"/>
		</clipPath>
		<g clip-path="url(#SVGID_12_)">
			<defs>
				<rect id="SVGID_13_" x="-823.333" y="-387.667" width="1280" height="780"/>
			</defs>
			<clipPath id="SVGID_14_">
				<use xlink:href="#SVGID_13_"  overflow="visible"/>
			</clipPath>
			<g clip-path="url(#SVGID_14_)" enable-background="new    ">
				<g>
					<defs>
						<rect id="SVGID_15_" x="6.667" y="7.333" width="22" height="15"/>
					</defs>
					<clipPath id="SVGID_16_">
						<use xlink:href="#SVGID_15_"  overflow="visible"/>
					</clipPath>
					<g clip-path="url(#SVGID_16_)">
						<defs>
							<path id="SVGID_17_" d="M6.784,14.472c0.047-0.048,0.102-0.082,0.16-0.104l7.904-6.911c0.186-0.185,0.487-0.185,0.672,0
								c0.187,0.186,0.187,0.485,0,0.672l-7.09,6.198h19.737c0.276,0,0.5,0.223,0.5,0.498c0,0.277-0.224,0.499-0.5,0.499H8.431
								l7.09,6.199c0.187,0.185,0.187,0.485,0,0.671c-0.185,0.186-0.486,0.186-0.672,0l-7.904-6.911
								c-0.059-0.022-0.113-0.058-0.16-0.104c-0.032-0.031-0.027-0.078-0.048-0.115c-0.018-0.03-0.03-0.063-0.04-0.096
								c-0.005-0.016,0-0.029-0.004-0.043C6.649,14.765,6.659,14.597,6.784,14.472"/>
						</defs>
						<clipPath id="SVGID_18_">
							<use xlink:href="#SVGID_17_"  overflow="visible"/>
						</clipPath>
						<g clip-path="url(#SVGID_18_)">
							<defs>
								<rect id="SVGID_19_" x="6.667" y="7.333" width="22" height="15"/>
							</defs>
							<clipPath id="SVGID_20_">
								<use xlink:href="#SVGID_19_"  overflow="visible"/>
							</clipPath>
							<rect x="1.669" y="2.318" clip-path="url(#SVGID_20_)" fill="#5E89C6" width="31.998" height="25.015"/>
						</g>
					</g>
				</g>
			</g>
		</g>
	</g>
</g>
</svg>
