<?xml version="1.0" encoding="UTF-8" standalone="no"?>
<svg width="17px" height="11px" viewBox="0 0 17 11" version="1.1" xmlns="http://www.w3.org/2000/svg" xmlns:xlink="http://www.w3.org/1999/xlink">
    <!-- Generator: Sketch 39 (31667) - http://www.bohemiancoding.com/sketch -->
    <title>Shape</title>
    <desc>Created with Sketch.</desc>
    <defs></defs>
    <g id="Page-1" stroke="none" stroke-width="1" fill="none" fill-rule="evenodd">
        <g id="25px" transform="translate(-1068.000000, -2183.000000)" stroke="#428BCA" fill="#428BCA">
            <path d="M1083.94296,2184.57514 L1076.89064,2192.49114 C1076.81485,2192.61114 1076.67906,2192.6735 1076.53932,2192.67745 C1076.5259,2192.67982 1076.51327,2192.67903 1076.49985,2192.68061 C1076.48564,2192.67903 1076.4738,2192.67982 1076.46038,2192.67745 C1076.31985,2192.6735 1076.18327,2192.61114 1076.10827,2192.49114 L1069.05596,2184.57514 C1068.9399,2184.3904 1069.00859,2184.15277 1069.2099,2184.0462 C1069.41122,2183.93962 1069.66858,2184.00278 1069.78543,2184.1883 L1076.49985,2191.72535 L1083.21349,2184.1883 C1083.33033,2184.00356 1083.58848,2183.94041 1083.78901,2184.0462 C1083.98953,2184.15198 1084.0598,2184.3904 1083.94296,2184.57514 L1083.94296,2184.57514 Z" id="Shape" transform="translate(1076.499546, 2188.337521) rotate(180.000000) translate(-1076.499546, -2188.337521) "></path>
        </g>
    </g>
</svg>