<?xml version="1.0" encoding="UTF-8" standalone="no"?>
<svg width="15px" height="10px" viewBox="0 0 15 10" version="1.1" xmlns="http://www.w3.org/2000/svg" xmlns:xlink="http://www.w3.org/1999/xlink">
    <!-- Generator: Sketch 39.1 (31720) - http://www.bohemiancoding.com/sketch -->
    <title>Shape</title>
    <desc>Created with Sketch.</desc>
    <defs></defs>
    <g id="Pax" stroke="none" stroke-width="1" fill="none" fill-rule="evenodd" opacity="0.618936567">
        <g id="passangers-1_color_detail_path_1" transform="translate(-125.000000, -691.000000)" stroke="#979797" fill="#999999">
            <g id="Content" transform="translate(23.000000, 229.000000)">
                <g id="Main" transform="translate(0.000000, 63.000000)">
                    <g id="passanger-1">
                        <g id="Group-13" transform="translate(39.000000, 193.000000)">
                            <g id="email-copy-4" transform="translate(0.000000, 156.000000)">
                                <path d="M76.9509556,51.5032786 L70.8389464,58.3638088 C70.7732627,58.467808 70.6555793,58.5218603 70.5344749,58.5252813 C70.5228434,58.5273339 70.5118961,58.5266497 70.5002646,58.5280181 C70.4879489,58.5266497 70.4776858,58.5273339 70.4660543,58.5252813 C70.3442657,58.5218603 70.2258982,58.467808 70.1608986,58.3638088 L64.0488894,51.5032786 C63.9483112,51.3431745 64.0078371,51.1372286 64.1823095,51.0448608 C64.356782,50.952493 64.579833,51.0072295 64.6810954,51.1680178 L70.5002646,57.7001293 L76.3187496,51.1680178 C76.420012,51.0079137 76.6437473,50.9531772 76.8175355,51.0448608 C76.9913238,51.1365443 77.0522181,51.3431745 76.9509556,51.5032786 L76.9509556,51.5032786 Z" id="Shape"></path>
                            </g>
                        </g>
                    </g>
                </g>
            </g>
        </g>
    </g>
</svg>