<?xml version="1.0" encoding="utf-8"?>
<!-- Generator: Adobe Illustrator 17.0.0, SVG Export Plug-In . SVG Version: 6.00 Build 0)  -->
<!DOCTYPE svg PUBLIC "-//W3C//DTD SVG 1.1//EN" "http://www.w3.org/Graphics/SVG/1.1/DTD/svg11.dtd" [
	<!ENTITY ns_extend "http://ns.adobe.com/Extensibility/1.0/">
	<!ENTITY ns_ai "http://ns.adobe.com/AdobeIllustrator/10.0/">
	<!ENTITY ns_graphs "http://ns.adobe.com/Graphs/1.0/">
	<!ENTITY ns_vars "http://ns.adobe.com/Variables/1.0/">
	<!ENTITY ns_imrep "http://ns.adobe.com/ImageReplacement/1.0/">
	<!ENTITY ns_sfw "http://ns.adobe.com/SaveForWeb/1.0/">
	<!ENTITY ns_custom "http://ns.adobe.com/GenericCustomNamespace/1.0/">
	<!ENTITY ns_adobe_xpath "http://ns.adobe.com/XPath/1.0/">
]>
<svg version="1.1" id="Capa_1" xmlns:x="&ns_extend;" xmlns:i="&ns_ai;" xmlns:graph="&ns_graphs;"
	 xmlns="http://www.w3.org/2000/svg" xmlns:xlink="http://www.w3.org/1999/xlink" x="0px" y="0px" width="19px" height="19.997px"
	 viewBox="0 0 19 19.997" enable-background="new 0 0 19 19.997" xml:space="preserve">
<metadata>
	<sfw  xmlns="&ns_sfw;">
		<slices></slices>
		<sliceSourceBounds  height="18.48" width="11.741" y="-303.236" x="412.634" bottomLeftOrigin="true"></sliceSourceBounds>
	</sfw>
</metadata>
<path fill="#666666" d="M13.319,12.898l-5.515,6.19c-0.059,0.094-0.165,0.143-0.275,0.146c-0.01,0.002-0.02,0.001-0.031,0.002
	c-0.011-0.001-0.02-0.001-0.031-0.002c-0.11-0.003-0.217-0.052-0.275-0.146l-5.515-6.19c-0.091-0.144-0.037-0.33,0.12-0.414
	c0.157-0.083,0.359-0.034,0.45,0.111l5.25,5.894l5.25-5.894c0.091-0.144,0.293-0.194,0.45-0.111
	C13.356,12.567,13.411,12.753,13.319,12.898z"/>
<path fill="#666666" d="M1.689,7.115l5.492-6.21C7.24,0.811,7.346,0.762,7.455,0.758c0.01-0.002,0.02-0.001,0.031-0.003
	c0.011,0.001,0.02,0.001,0.031,0.002c0.11,0.003,0.217,0.051,0.276,0.145l5.537,6.17c0.091,0.144,0.038,0.33-0.119,0.414
	s-0.359,0.035-0.45-0.109L7.489,1.503L2.261,7.415C2.17,7.56,1.968,7.61,1.811,7.528S1.598,7.26,1.689,7.115z"/>
</svg>
