<?xml version="1.0" encoding="utf-8"?>
<!-- Generator: Adobe Illustrator 17.0.0, SVG Export Plug-In . SVG Version: 6.00 Build 0)  -->
<!DOCTYPE svg PUBLIC "-//W3C//DTD SVG 1.1//EN" "http://www.w3.org/Graphics/SVG/1.1/DTD/svg11.dtd" [
	<!ENTITY ns_extend "http://ns.adobe.com/Extensibility/1.0/">
	<!ENTITY ns_ai "http://ns.adobe.com/AdobeIllustrator/10.0/">
	<!ENTITY ns_graphs "http://ns.adobe.com/Graphs/1.0/">
	<!ENTITY ns_vars "http://ns.adobe.com/Variables/1.0/">
	<!ENTITY ns_imrep "http://ns.adobe.com/ImageReplacement/1.0/">
	<!ENTITY ns_sfw "http://ns.adobe.com/SaveForWeb/1.0/">
	<!ENTITY ns_custom "http://ns.adobe.com/GenericCustomNamespace/1.0/">
	<!ENTITY ns_adobe_xpath "http://ns.adobe.com/XPath/1.0/">
]>
<svg version="1.1" id="Capa_1" xmlns:x="&ns_extend;" xmlns:i="&ns_ai;" xmlns:graph="&ns_graphs;"
	 xmlns="http://www.w3.org/2000/svg" xmlns:xlink="http://www.w3.org/1999/xlink" x="0px" y="0px" width="25px" height="25.001px"
	 viewBox="0 0 25 25.001" enable-background="new 0 0 25 25.001" xml:space="preserve">
<metadata>
	<sfw  xmlns="&ns_sfw;">
		<slices></slices>
		<sliceSourceBounds  width="13.721" height="13.722" y="-26.006" x="17.964" bottomLeftOrigin="true"></sliceSourceBounds>
	</sfw>
</metadata>
<path d="M16.473,19.361c-3.789,0-6.861-3.072-6.861-6.861c0-3.789,3.071-6.861,6.861-6.861c3.789,0,6.861,3.072,6.861,6.861
	C23.333,16.289,20.261,19.361,16.473,19.361z M16.473,6.188c-3.486,0-6.312,2.826-6.312,6.313c0,3.486,2.825,6.312,6.312,6.312
	s6.312-2.825,6.312-6.312C22.784,9.014,19.959,6.188,16.473,6.188z M18.331,12.696c-0.01,0.009-0.024,0.007-0.035,0.014
	l-3.295,3.296c-0.102,0.102-0.267,0.102-0.37,0c-0.102-0.103-0.102-0.268,0-0.37l3.134-3.134l-3.134-3.135
	c-0.102-0.102-0.102-0.267,0-0.37c0.103-0.103,0.268-0.103,0.37,0l3.295,3.295c0.011,0.008,0.025,0.005,0.035,0.014
	c0.054,0.054,0.076,0.125,0.072,0.195C18.406,12.572,18.384,12.642,18.331,12.696z"/>
</svg>
