<?xml version="1.0" encoding="UTF-8" standalone="no"?>
<svg width="20px" height="20px" viewBox="0 0 20 20" version="1.1" xmlns="http://www.w3.org/2000/svg" xmlns:xlink="http://www.w3.org/1999/xlink">
    <!-- Generator: Sketch 3.8.3 (29802) - http://www.bohemiancoding.com/sketch -->
    <title>Shape</title>
    <desc>Created with Sketch.</desc>
    <defs></defs>
    <g id="Page-1" stroke="none" stroke-width="1" fill="none" fill-rule="evenodd">
        <g id="25px" transform="translate(-841.000000, -1729.000000)" fill="#FFFFFF">
            <path d="M859.263688,1729.79695 C859.684459,1729.79695 859.955641,1729.92734 860.015637,1729.98653 C860.242822,1730.21292 860.473207,1731.48003 859.329283,1732.62716 L855.20716,1736.75808 L854.954377,1737.01086 L854.975175,1737.36924 C855.042371,1738.51796 855.164763,1740.55702 855.272755,1742.33371 C855.374349,1744.01599 855.469542,1745.60389 855.475142,1745.72068 C855.479941,1745.85347 855.485541,1746.00466 855.292754,1746.23824 C854.931178,1746.67821 854.054437,1747.61095 854.055237,1747.61095 L854.055237,1747.61095 C854.01204,1747.65495 853.973643,1747.67895 853.946444,1747.69095 C853.824852,1747.37417 852.416947,1743.56082 851.77859,1741.80494 L851.358618,1740.64902 L850.472277,1741.50256 L847.918049,1743.964 L847.679665,1744.19278 L847.672465,1744.52316 C847.663666,1744.91433 847.665266,1745.63748 847.666865,1746.27664 C847.667665,1746.78221 847.669265,1747.23338 847.664466,1747.41896 C847.663666,1747.44776 847.664466,1747.47976 847.666066,1747.51736 C847.671665,1747.63655 847.491677,1747.89493 847.314089,1748.10772 C847.289291,1748.13092 847.266892,1748.14932 847.248494,1748.16211 C847.143701,1747.99333 846.914116,1747.62615 846.645334,1747.19658 C846.138168,1746.38783 845.490211,1745.3511 845.284625,1745.01513 L845.183032,1744.84954 L845.015843,1744.74874 C843.685533,1743.9424 842.161635,1742.96646 841.822457,1742.73608 C841.825657,1742.73048 841.829657,1742.72568 841.834457,1742.72088 L841.861655,1742.69528 C842.302425,1742.32571 842.472814,1742.29931 842.503212,1742.29931 L842.576007,1742.29931 L842.703198,1742.29771 C842.906385,1742.29771 843.243162,1742.30251 843.619937,1742.30811 C844.107104,1742.31451 844.659867,1742.32251 845.083039,1742.32251 C845.239028,1742.32251 845.379019,1742.32091 845.491011,1742.31931 L845.822989,1742.31451 L846.054174,1742.07532 L848.514809,1739.53069 L849.367551,1738.64915 L848.217229,1738.22438 C846.421349,1737.56203 842.575207,1736.12052 842.289626,1736.00853 C842.300825,1735.98293 842.320024,1735.94853 842.353622,1735.91414 C842.363221,1735.90534 843.305558,1735.0182 843.743929,1734.65502 C843.937516,1734.49423 844.075906,1734.47343 844.1751,1734.47343 L844.238295,1734.47423 C844.354288,1734.47983 845.934982,1734.58383 847.608469,1734.69262 C849.403549,1734.81021 851.47221,1734.9454 852.632932,1735.019 L852.994508,1735.04139 L853.249691,1734.78541 L857.370215,1730.65689 C858.119764,1729.90894 858.878914,1729.79695 859.263688,1729.79695 L859.263688,1729.79695 Z M859.263688,1728.997 C858.522937,1728.997 857.614998,1729.28178 856.803853,1730.09453 L852.683329,1734.22305 C850.361885,1734.07666 844.417483,1733.68229 844.269493,1733.67829 C844.243095,1733.67669 844.211097,1733.67589 844.1743,1733.67589 C843.973513,1733.67589 843.626336,1733.71428 843.231963,1734.04066 C842.768794,1734.42464 841.804059,1735.33338 841.804059,1735.33338 C841.570474,1735.56856 841.452882,1735.85734 841.48168,1736.13092 C841.498479,1736.29571 841.588073,1736.59489 841.991246,1736.75328 C842.23683,1736.85007 846.138168,1738.31158 847.939647,1738.97553 L845.479012,1741.52016 C845.37022,1741.52096 845.235029,1741.52336 845.083039,1741.52336 C844.332689,1741.52336 843.169567,1741.49936 842.703198,1741.49936 C842.641603,1741.49936 842.592006,1741.49936 842.556808,1741.50016 L842.540009,1741.50016 L842.483213,1741.50016 C842.317624,1741.50016 842.006445,1741.53136 841.348089,1742.08332 L841.292893,1742.13452 C841.060109,1742.3681 841.006512,1742.59929 841.000913,1742.75288 C840.996113,1742.90967 841.03851,1743.13765 841.266495,1743.32164 C841.403286,1743.43283 843.161568,1744.56076 844.603071,1745.4335 C844.949448,1745.99746 846.539741,1748.53009 846.622936,1748.66848 C846.742927,1748.87407 846.941314,1748.99006 847.178898,1748.99806 L847.198097,1748.99806 C847.428481,1748.99806 847.665266,1748.88287 847.89725,1748.65808 C848.551606,1747.88933 848.462012,1747.57175 848.465212,1747.43736 C848.475611,1747.01899 848.458012,1745.24311 848.473211,1744.53916 L851.02824,1742.07772 C851.680996,1743.8744 853.1097,1747.74294 853.204894,1747.98933 C853.364083,1748.3949 853.663263,1748.48289 853.828052,1748.49969 C853.854451,1748.50289 853.881649,1748.50369 853.909647,1748.50369 C854.15683,1748.50369 854.412813,1748.3877 854.623199,1748.17651 C854.623199,1748.17651 855.527938,1747.21418 855.911913,1746.74701 C856.297487,1746.27904 856.282288,1745.87987 856.275088,1745.69108 C856.271888,1745.56069 855.909513,1739.63709 855.774322,1737.32284 L859.896445,1733.19272 C861.357147,1731.72882 861.125163,1729.96334 860.581999,1729.42017 C860.341215,1729.18019 859.855648,1728.997 859.263688,1728.997 L859.263688,1728.997 L859.263688,1728.997 Z" id="Shape"></path>
        </g>
    </g>
</svg>