<?xml version="1.0" encoding="UTF-8" standalone="no"?>
<svg width="15px" height="10px" viewBox="0 0 15 10" version="1.1" xmlns="http://www.w3.org/2000/svg" xmlns:xlink="http://www.w3.org/1999/xlink">
    <!-- Generator: Sketch 39 (31667) - http://www.bohemiancoding.com/sketch -->
    <title>icon-arrow-airport</title>
    <desc>Created with Sketch.</desc>
    <defs></defs>
    <g id="Page-1" stroke="none" stroke-width="1" fill="none" fill-rule="evenodd">
        <g id="icon-arrow-airport" fill="#999999">
            <g id="Page-1">
                <g id="25px">
                    <path d="M14.0190818,5.36372727 L7.04018864,9.60509318 C6.91071818,9.69043636 6.78926591,9.73225227 6.68271136,9.73225227 C6.45469773,9.73225227 6.298875,9.54209318 6.298875,9.20759318 L6.298875,6.30020455 L1.43221364,6.30020455 C0.641059091,6.30020455 0,5.65984773 0,4.86885 C0,4.078425 0.641059091,3.43749545 1.43221364,3.43749545 L6.298875,3.43749545 L6.298875,0.530113636 C6.298875,0.195040909 6.454125,0.00545454545 6.68271136,0.00545454545 C6.78926591,0.00545454545 6.91071818,0.0466909091 7.04018864,0.133179545 L14.0190818,4.37397955 C14.2224545,4.51029545 14.325,4.68957273 14.325,4.86885 C14.325,5.04812727 14.2224545,5.22740455 14.0190818,5.36372727 L14.0190818,5.36372727 L14.0190818,5.36372727 Z" id="Shape"></path>
                </g>
            </g>
        </g>
    </g>
</svg>