<?xml version="1.0" encoding="UTF-8" standalone="no"?>
<svg width="19px" height="11px" viewBox="0 0 19 11" version="1.1" xmlns="http://www.w3.org/2000/svg" xmlns:xlink="http://www.w3.org/1999/xlink">
    <!-- Generator: Sketch 3.8.3 (29802) - http://www.bohemiancoding.com/sketch -->
    <title>Shape</title>
    <desc>Created with Sketch.</desc>
    <defs></defs>
    <g id="Page-1" stroke="none" stroke-width="1" fill="none" fill-rule="evenodd">
        <g id="25px" transform="translate(-1069.000000, -2184.000000)" fill="#FFFFFF">
            <path d="M1087.928,2184.73 L1078.995,2194.757 C1078.899,2194.909 1078.727,2194.988 1078.55,2194.993 C1078.533,2194.996 1078.517,2194.995 1078.5,2194.997 C1078.482,2194.995 1078.467,2194.996 1078.45,2194.993 C1078.272,2194.988 1078.099,2194.909 1078.004,2194.757 L1069.071,2184.73 C1068.924,2184.496 1069.011,2184.195 1069.266,2184.06 C1069.521,2183.925 1069.847,2184.005 1069.995,2184.24 L1078.5,2193.787 L1087.004,2184.24 C1087.152,2184.006 1087.479,2183.926 1087.733,2184.06 C1087.987,2184.194 1088.076,2184.496 1087.928,2184.73 L1087.928,2184.73 Z" id="Shape"></path>
        </g>
    </g>
</svg>