<?xml version="1.0" encoding="UTF-8" standalone="no"?>
<svg width="18px" height="15px" viewBox="0 0 18 15" version="1.1" xmlns="http://www.w3.org/2000/svg" xmlns:xlink="http://www.w3.org/1999/xlink">
    <!-- Generator: Sketch 39 (31667) - http://www.bohemiancoding.com/sketch -->
    <title>Shape</title>
    <desc>Created with Sketch.</desc>
    <defs></defs>
    <g id="Page-1" stroke="none" stroke-width="1" fill="none" fill-rule="evenodd">
        <g id="25px" transform="translate(-842.000000, -1730.000000)" fill="#666666">
            <path d="M856.255115,1730.01379 C856.598064,1730.01379 856.819091,1730.12007 856.86799,1730.16832 C857.053156,1730.35283 857.240931,1731.38559 856.308579,1732.32055 L852.948852,1735.68745 L852.742822,1735.89348 L852.759774,1736.18557 C852.814542,1737.12183 852.914297,1738.78377 853.002316,1740.23185 C853.085119,1741.60299 853.162706,1742.8972 853.16727,1742.99239 C853.171182,1743.10062 853.175746,1743.22385 853.018616,1743.41423 C852.723914,1743.77283 852.009329,1744.53305 852.009981,1744.53305 L852.009981,1744.53305 C851.974773,1744.56891 851.943477,1744.58847 851.921309,1744.59825 C851.822206,1744.34006 850.674696,1741.23201 850.154405,1739.80088 L849.812108,1738.85875 L849.089698,1739.55443 L847.00788,1741.56061 L846.813586,1741.74708 L846.807718,1742.01636 C846.800546,1742.33518 846.80185,1742.92458 846.803154,1743.44553 C846.803806,1743.85759 846.80511,1744.22531 846.801198,1744.37658 C846.800546,1744.40005 846.801198,1744.42613 846.802502,1744.45677 C846.807066,1744.55392 846.660367,1744.76451 846.515625,1744.93794 C846.495413,1744.95685 846.477157,1744.97185 846.462161,1744.98228 C846.37675,1744.84471 846.189627,1744.54544 845.970557,1744.19532 C845.557193,1743.53615 845.029078,1742.69117 844.861515,1742.41733 L844.778712,1742.28237 L844.642445,1742.20022 C843.558178,1741.54301 842.316129,1740.74758 842.039684,1740.5598 C842.042292,1740.55524 842.045552,1740.55132 842.049464,1740.54741 L842.071631,1740.52655 C842.43088,1740.22533 842.569755,1740.20381 842.594531,1740.20381 L842.653862,1740.20381 L842.757529,1740.20251 C842.923136,1740.20251 843.197626,1740.20642 843.504715,1740.21098 C843.901779,1740.2162 844.352308,1740.22272 844.697213,1740.22272 C844.824351,1740.22272 844.93845,1740.22142 845.02973,1740.22011 L845.300307,1740.2162 L845.488734,1740.02125 L847.494268,1737.94726 L848.189294,1737.22876 L847.251726,1736.88255 C845.787999,1736.3427 842.65321,1735.16781 842.420448,1735.07653 C842.429576,1735.05566 842.445224,1735.02763 842.472608,1734.99959 C842.480432,1734.99242 843.248481,1734.26936 843.605774,1733.97335 C843.763557,1733.8423 843.876352,1733.82535 843.957199,1733.82535 L844.008707,1733.826 C844.103246,1733.83057 845.391586,1733.91533 846.755559,1734.004 C848.218634,1734.09984 849.904691,1734.21003 850.850735,1734.27001 L851.145436,1734.28827 L851.353422,1734.07963 L854.711845,1730.71469 C855.322764,1730.10507 855.941506,1730.01379 856.255115,1730.01379 L856.255115,1730.01379 Z" id="Shape" transform="translate(849.529684, 1737.498035) rotate(45.000000) translate(-849.529684, -1737.498035) "></path>
        </g>
    </g>
</svg>