<?xml version="1.0" encoding="utf-8"?>
<!-- Generator: Adobe Illustrator 17.0.0, SVG Export Plug-In . SVG Version: 6.00 Build 0)  -->
<!DOCTYPE svg PUBLIC "-//W3C//DTD SVG 1.1//EN" "http://www.w3.org/Graphics/SVG/1.1/DTD/svg11.dtd" [
	<!ENTITY ns_extend "http://ns.adobe.com/Extensibility/1.0/">
	<!ENTITY ns_ai "http://ns.adobe.com/AdobeIllustrator/10.0/">
	<!ENTITY ns_graphs "http://ns.adobe.com/Graphs/1.0/">
	<!ENTITY ns_vars "http://ns.adobe.com/Variables/1.0/">
	<!ENTITY ns_imrep "http://ns.adobe.com/ImageReplacement/1.0/">
	<!ENTITY ns_sfw "http://ns.adobe.com/SaveForWeb/1.0/">
	<!ENTITY ns_custom "http://ns.adobe.com/GenericCustomNamespace/1.0/">
	<!ENTITY ns_adobe_xpath "http://ns.adobe.com/XPath/1.0/">
]>
<svg version="1.1" id="Capa_1" xmlns:x="&ns_extend;" xmlns:i="&ns_ai;" xmlns:graph="&ns_graphs;"
	 xmlns="http://www.w3.org/2000/svg" xmlns:xlink="http://www.w3.org/1999/xlink" x="0px" y="0px" width="39.25px" height="32.25px"
	 viewBox="0 0 39.25 32.25" enable-background="new 0 0 39.25 32.25" xml:space="preserve">
<metadata>
	<sfw  xmlns="&ns_sfw;">
		<slices></slices>
		<sliceSourceBounds  width="1382" height="2026.61" bottomLeftOrigin="true" y="-738.265" x="-43.125"></sliceSourceBounds>
	</sfw>
</metadata>
<g>
	<g>
		<path fill="none" d="M938,1051.89"/>
		<line fill="none" stroke="#000000" stroke-miterlimit="10" x1="125.848" y1="667.158" x2="118.594" y2="671.738"/>
	</g>
</g>
<g>
	<g>
		<defs>
			<rect id="SVGID_1_" x="-444" y="-904.72" width="1280" height="1260"/>
		</defs>
		<clipPath id="SVGID_2_">
			<use xlink:href="#SVGID_1_"  overflow="visible"/>
		</clipPath>
		<g clip-path="url(#SVGID_2_)" enable-background="new    ">
			<g>
				<g>
					<defs>
						<path id="SVGID_3_" d="M5.792,17.448c0.655,0.655,1.709,1.206,3.144,1.204l7.292-0.007c1.923,2.182,6.829,7.785,6.956,7.919
							c0.022,0.025,0.049,0.054,0.082,0.086c0.177,0.178,0.518,0.451,1.155,0.511c0.749,0.07,2.405,0.119,2.405,0.119
							c0.415-0.001,0.774-0.152,0.99-0.42c0.131-0.16,0.316-0.504,0.1-1c-0.132-0.303-2.288-5.043-3.294-7.222l4.424-0.075
							c0.097,0.096,0.219,0.213,0.353,0.347c0.664,0.664,1.671,1.713,2.083,2.125c0.054,0.055,0.098,0.099,0.13,0.129
							c0.004,0.004,0.01,0.01,0.015,0.015c0.014,0.015,0.031,0.032,0.05,0.05c0.146,0.146,0.449,0.394,1.519,0.488l0.094,0.003
							c0.412,0,0.664-0.157,0.804-0.288c0.143-0.134,0.307-0.373,0.268-0.738c-0.022-0.219-0.579-2.77-1.082-4.816
							c0.192-0.804,1.025-4.449,1.074-4.645c0.075-0.287,0.003-0.565-0.2-0.782c-0.007-0.007-0.012-0.012-0.017-0.017
							c-0.204-0.204-0.515-0.311-0.919-0.318c-1.258,0.101-1.459,0.461-1.581,0.577c-0.379,0.361-1.933,1.946-2.569,2.555
							l-4.434-0.083c1.011-2.165,3.168-6.847,3.301-7.149c0.218-0.499,0.031-0.842-0.099-1.002
							c-0.021-0.026-0.044-0.051-0.069-0.076c-0.218-0.218-0.547-0.342-0.92-0.341c0,0-1.65,0.051-2.403,0.124
							C23.69,4.794,23.35,5.16,23.19,5.333c-0.112,0.118-5.028,5.675-6.955,7.84L8.941,13.18C6.356,13.183,5,14.949,5,15.909
							C5.001,16.334,5.269,16.925,5.792,17.448"/>
					</defs>
					<use xlink:href="#SVGID_3_"  overflow="visible" fill-rule="evenodd" clip-rule="evenodd" fill="#FFFFFF"/>
					<clipPath id="SVGID_4_">
						<use xlink:href="#SVGID_3_"  overflow="visible"/>
					</clipPath>
					<g clip-path="url(#SVGID_4_)">
						<defs>
							<rect id="SVGID_5_" x="4.383" y="4.28" width="30" height="23"/>
						</defs>
						<clipPath id="SVGID_6_">
							<use xlink:href="#SVGID_5_"  overflow="visible"/>
						</clipPath>
					</g>
				</g>
			</g>
		</g>
	</g>
</g>
<g>
	<defs>
		<path id="SVGID_7_" d="M24.176,13.671l-7.2,4.314l-9.157,0.543c-4.808-3.866-0.641-4.918-0.641-4.918l9.507,0.562l7.171-8.983
			l3.372,0.119l-2.594,7.856"/>
	</defs>
	<clipPath id="SVGID_8_">
		<use xlink:href="#SVGID_7_"  overflow="visible"/>
	</clipPath>
	<g clip-path="url(#SVGID_8_)">
		<defs>
			<rect id="SVGID_9_" x="-444" y="-974.72" width="1280" height="1260"/>
		</defs>
		<clipPath id="SVGID_10_">
			<use xlink:href="#SVGID_9_"  overflow="visible"/>
		</clipPath>
		<rect x="0.502" y="0.19" clip-path="url(#SVGID_10_)" fill="#5E99FB" width="31.726" height="23.339"/>
	</g>
</g>
<g>
	<g>
		<defs>
			<rect id="SVGID_11_" x="5" y="4.597" width="29.383" height="22.683"/>
		</defs>
		<clipPath id="SVGID_12_">
			<use xlink:href="#SVGID_11_"  overflow="visible"/>
		</clipPath>
		<g clip-path="url(#SVGID_12_)">
			<defs>
				<rect id="SVGID_13_" x="-444" y="-974.72" width="1280" height="1260"/>
			</defs>
			<clipPath id="SVGID_14_">
				<use xlink:href="#SVGID_13_"  overflow="visible"/>
			</clipPath>
			<g clip-path="url(#SVGID_14_)" enable-background="new    ">
				<g>
					<defs>
						<rect id="SVGID_15_" x="4.383" y="4.28" width="30" height="23"/>
					</defs>
					<clipPath id="SVGID_16_">
						<use xlink:href="#SVGID_15_"  overflow="visible"/>
					</clipPath>
					<g clip-path="url(#SVGID_16_)">
						<defs>
							<path id="SVGID_17_" d="M6.499,16.741c-0.372-0.372-0.496-0.727-0.497-0.832c-0.001-0.401,0.916-1.725,2.941-1.728
								l7.295-0.008h0.447l0.298-0.335c0.956-1.075,2.651-2.985,4.126-4.651c1.397-1.577,2.716-3.065,2.815-3.173
								c0.113-0.122,0.242-0.26,0.618-0.296c0.709-0.07,2.308-0.119,2.308-0.12c0.077,0,0.132,0.012,0.167,0.026
								c-0.173,0.387-2.299,5.002-3.287,7.119l-0.651,1.393l1.538,0.029l4.434,0.082l0.413,0.008l0.298-0.285
								c0.354-0.338,0.992-0.979,1.555-1.545c0.446-0.448,0.844-0.848,1.012-1.008c0.026-0.025,0.054-0.054,0.086-0.088
								c0.1-0.111,0.488-0.18,0.833-0.211c0.042,0.001,0.078,0.005,0.106,0.01c-0.057,0.242-0.179,0.769-0.321,1.386
								c-0.266,1.164-0.61,2.653-0.725,3.131l-0.057,0.237l0.059,0.237c0.463,1.888,0.947,4.098,1.044,4.601
								c-0.008,0.002-0.016,0.003-0.024,0.003l-0.047-0.001c-0.716-0.063-0.89-0.19-0.917-0.217l-0.065-0.065l-0.113-0.111
								c-0.18-0.179-0.473-0.481-0.802-0.819c-0.425-0.436-0.906-0.932-1.28-1.306c-0.138-0.138-0.263-0.26-0.364-0.358
								l-0.297-0.289l-0.416,0.007l-4.424,0.074l-1.534,0.026l0.642,1.392c1.002,2.173,3.127,6.847,3.281,7.198
								c-0.033,0.013-0.08,0.026-0.14,0.027c-0.017,0-1.634-0.049-2.342-0.116c-0.313-0.029-0.454-0.133-0.542-0.22l-0.055-0.057
								c-0.098-0.107-1.403-1.596-2.786-3.172c-1.483-1.691-3.192-3.639-4.153-4.73l-0.3-0.339l-0.452,0.001l-7.291,0.007
								C7.609,17.653,6.839,17.081,6.499,16.741 M5.792,17.448c0.655,0.655,1.709,1.206,3.144,1.204l7.292-0.007
								c1.923,2.182,6.829,7.785,6.956,7.919c0.022,0.025,0.049,0.054,0.082,0.086c0.177,0.178,0.518,0.451,1.155,0.511
								c0.749,0.07,2.405,0.119,2.405,0.119c0.415-0.001,0.774-0.152,0.99-0.42c0.131-0.16,0.316-0.504,0.1-1
								c-0.132-0.303-2.288-5.043-3.294-7.222l4.424-0.075c0.097,0.096,0.219,0.213,0.353,0.347
								c0.664,0.664,1.671,1.713,2.083,2.125c0.054,0.055,0.098,0.099,0.13,0.129c0.004,0.004,0.01,0.01,0.015,0.015
								c0.014,0.015,0.031,0.032,0.05,0.05c0.146,0.146,0.449,0.394,1.519,0.488l0.094,0.003c0.412,0,0.664-0.157,0.804-0.288
								c0.143-0.134,0.307-0.373,0.268-0.738c-0.022-0.219-0.579-2.77-1.082-4.816c0.192-0.804,1.025-4.449,1.074-4.645
								c0.075-0.287,0.003-0.565-0.2-0.782c-0.007-0.007-0.012-0.012-0.017-0.017c-0.204-0.204-0.515-0.311-0.919-0.318
								c-1.258,0.101-1.459,0.461-1.581,0.577c-0.379,0.361-1.933,1.946-2.569,2.555l-4.434-0.083
								c1.011-2.165,3.168-6.847,3.301-7.149c0.218-0.499,0.031-0.842-0.099-1.002c-0.021-0.026-0.044-0.051-0.069-0.076
								c-0.218-0.218-0.547-0.342-0.92-0.341c0,0-1.65,0.051-2.403,0.124C23.69,4.794,23.35,5.16,23.19,5.333
								c-0.112,0.118-5.028,5.675-6.955,7.84L8.941,13.18C6.356,13.183,5,14.949,5,15.909C5.001,16.334,5.269,16.925,5.792,17.448"
								/>
						</defs>
						<clipPath id="SVGID_18_">
							<use xlink:href="#SVGID_17_"  overflow="visible"/>
						</clipPath>
						<g clip-path="url(#SVGID_18_)">
							<defs>
								<rect id="SVGID_19_" x="4.383" y="4.28" width="30" height="23"/>
							</defs>
							<clipPath id="SVGID_20_">
								<use xlink:href="#SVGID_19_"  overflow="visible"/>
							</clipPath>
							<rect x="0" y="-0.403" clip-path="url(#SVGID_20_)" width="39.383" height="32.683"/>
						</g>
					</g>
				</g>
			</g>
		</g>
	</g>
</g>
<g>
	<line fill="none" stroke="#000000" stroke-miterlimit="10" x1="16.535" y1="18.012" x2="23.789" y2="13.432"/>
</g>
</svg>
