<?xml version="1.0" encoding="utf-8"?>
<!-- Generator: Adobe Illustrator 22.0.1, SVG Export Plug-In . SVG Version: 6.00 Build 0)  -->
<svg version="1.1" id="Capa_1" xmlns="http://www.w3.org/2000/svg" xmlns:xlink="http://www.w3.org/1999/xlink" x="0px" y="0px"
	 viewBox="0 0 39.3 32.3" style="enable-background:new 0 0 39.3 32.3;" xml:space="preserve">
<style type="text/css">
	.st0{fill:none;}
	.st1{fill:none;stroke:#000000;stroke-miterlimit:10;}
	.st2{fill:#092A5B;}
	.st3{fill:#EB9600;}
</style>
<g>
	<g>
		<path class="st0" d="M938,1051.9"/>
		<line class="st1" x1="125.8" y1="667.2" x2="118.6" y2="671.7"/>
	</g>
</g>
<path class="st2" d="M26.5,5.2c-0.1-0.2-0.3-0.4-0.6-0.4l-1-0.1c-0.4,0-0.8,0.1-1.1,0.4l-6.4,5.8c-0.2,0.1-0.2,0.4,0,0.6
	c0.1,0.2,0.4,0.2,0.6,0l6.4-5.8c0.1,0,0.3-0.1,0.4-0.1l0.8,0.1l-3,5.9c-0.1,0.2,0,0.5,0.2,0.6s0.4,0,0.5-0.1c0.1,0,0.1-0.1,0.1-0.1
	l3.1-6C26.6,5.8,26.6,5.5,26.5,5.2z"/>
<path class="st2" d="M17.9,27.5l1,0.1c0.5,0,0.9-0.3,1-0.8L21,19c0.1,0,0.1-0.1,0.2-0.2c0.2-0.2,0.5-0.3,0.9-0.3l2.3,0.3
	c0.8,0.1,5.7,0,7.9-1.7c0,0,0.1,0,0.3-0.2c0.4-0.5,0.6-1,0.5-1.4c0-0.2-0.2-0.3-0.4-0.4l1.4-3.1c0.1-0.2,0.1-0.5,0-0.7
	s-0.3-0.4-0.6-0.4l-1-0.1c-0.3-0.1-0.8,0.1-1.1,0.3L28,13.9c-2-0.4-4.5-0.8-4.8-0.8l-13-1.6c-1.4-0.1-3.7,1.2-4.6,2.1
	c-0.3,0.3-0.4,0.6-0.5,0.8c0,0.2,0,0.3,0,0.4c0,1,1.4,1.9,3.2,2.1l5.9,0.8l2.9,9.1C17.3,27.2,17.7,27.6,17.9,27.5z M17.9,26.8
	l-3-9.6l-6.4-0.9c-1.5-0.2-2.4-1-2.4-1.4v-0.1v-0.1c0,0,0.1-0.2,0.3-0.4c0.9-0.9,2.9-1.9,3.9-1.8l12.9,1.6c0.4,0,2.9,0.4,4.9,0.8
	h0.2L32,12c0.1,0,0.4-0.1,0.5-0.1l0.8,0.1l-1.8,4H32c0.1,0,0.1,0,0.2,0c-0.1,0.1-0.2,0.2-0.3,0.4c0,0.1-0.1,0.1-0.1,0.1
	c-1.9,1.5-6.6,1.6-7.3,1.6l-2.3-0.3c-1.4-0.1-1.8,1-1.9,1.1V19l-1.2,7.9l-1-0.1C18,26.7,17.9,26.6,17.9,26.8z"/>
<path class="st3" d="M9.9,14c-0.2,0-0.4,0.1-0.5,0.2c-0.2,0-1,0-1.6-0.2c-0.2-0.1-0.4,0.1-0.5,0.3s0.1,0.4,0.3,0.5
	c0.7,0.1,1.8,0.3,2.3,0l0.1-0.1c0.1-0.1,0.2-0.2,0.2-0.3C10.3,14.2,10.1,14,9.9,14z"/>
</svg>
