<?xml version="1.0" encoding="UTF-8" standalone="no"?>
<svg width="13px" height="7px" viewBox="0 0 13 7" version="1.1" xmlns="http://www.w3.org/2000/svg" xmlns:xlink="http://www.w3.org/1999/xlink">
    <!-- Generator: Sketch 39.1 (31720) - http://www.bohemiancoding.com/sketch -->
    <title>Group 6</title>
    <desc>Created with Sketch.</desc>
    <defs></defs>
    <g id="Pax" stroke="none" stroke-width="1" fill="none" fill-rule="evenodd">
        <g id="passangers-1_color_detail_path_1" transform="translate(-1218.000000, -389.000000)" fill="#444444">
            <g id="Content" transform="translate(23.000000, 229.000000)">
                <g id="Aside" transform="translate(852.000000, 63.000000)">
                    <g id="flight">
                        <g id="go" transform="translate(28.000000, 87.000000)">
                            <g id="Group-6" transform="translate(321.500000, 13.500000) rotate(180.000000) translate(-321.500000, -13.500000) translate(315.000000, 10.000000)">
                                <path d="M6.52170577,5.06842661 L2.29507935,0.84180019 C1.98137237,0.528093206 1.47384727,0.526141544 1.16201905,0.837969763 C0.848016826,1.15197199 0.851905776,1.65708636 1.16584948,1.97103006 L5.88850514,6.69368572 C5.90824328,6.71891024 5.92971984,6.74321078 5.95293565,6.76642659 C6.12605223,6.93954317 6.35725865,7.01603457 6.58249259,6.99721399 C6.76783883,6.98453637 6.94923252,6.90766995 7.09047588,6.76642659 C7.11386391,6.74303857 7.13548833,6.71859029 7.15535239,6.69323973 L11.8775621,1.97103006 C12.191269,1.65732308 12.1932207,1.14979798 11.8813925,0.837969763 C11.5673903,0.523967535 11.0622759,0.527856485 10.7483322,0.84180019 L6.52170577,5.06842661 Z" id="Combined-Shape"></path>
                            </g>
                        </g>
                    </g>
                </g>
            </g>
        </g>
    </g>
</svg>