<?xml version="1.0" encoding="utf-8"?>
<!-- Generator: Adobe Illustrator 17.0.0, SVG Export Plug-In . SVG Version: 6.00 Build 0)  -->
<!DOCTYPE svg PUBLIC "-//W3C//DTD SVG 1.1//EN" "http://www.w3.org/Graphics/SVG/1.1/DTD/svg11.dtd" [
	<!ENTITY ns_extend "http://ns.adobe.com/Extensibility/1.0/">
	<!ENTITY ns_ai "http://ns.adobe.com/AdobeIllustrator/10.0/">
	<!ENTITY ns_graphs "http://ns.adobe.com/Graphs/1.0/">
	<!ENTITY ns_vars "http://ns.adobe.com/Variables/1.0/">
	<!ENTITY ns_imrep "http://ns.adobe.com/ImageReplacement/1.0/">
	<!ENTITY ns_sfw "http://ns.adobe.com/SaveForWeb/1.0/">
	<!ENTITY ns_custom "http://ns.adobe.com/GenericCustomNamespace/1.0/">
	<!ENTITY ns_adobe_xpath "http://ns.adobe.com/XPath/1.0/">
]>
<svg version="1.1" id="Capa_1" xmlns:x="&ns_extend;" xmlns:i="&ns_ai;" xmlns:graph="&ns_graphs;"
	 xmlns="http://www.w3.org/2000/svg" xmlns:xlink="http://www.w3.org/1999/xlink" x="0px" y="0px" width="39.25px" height="32.25px"
	 viewBox="0 0 39.25 32.25" enable-background="new 0 0 39.25 32.25" xml:space="preserve">
<metadata>
	<sfw  xmlns="&ns_sfw;">
		<slices></slices>
		<sliceSourceBounds  width="1382" height="1913" bottomLeftOrigin="true" y="-1051.89" x="-444"></sliceSourceBounds>
	</sfw>
</metadata>
<g>
	<defs>
		<path id="SVGID_1_" d="M938,1051.89"/>
	</defs>
	<clipPath id="SVGID_2_">
		<use xlink:href="#SVGID_1_"  overflow="visible"/>
	</clipPath>
	
		<line clip-path="url(#SVGID_2_)" fill="none" stroke="#000000" stroke-miterlimit="10" x1="125.848" y1="667.158" x2="118.594" y2="671.738"/>
</g>
<g>
	<path fill-rule="evenodd" clip-rule="evenodd" fill="#FFFFFF" d="M31.44,17.989l-7.295,0.008h-0.447L23.4,18.332
		c-0.956,1.075-2.651,2.985-4.126,4.651c-1.397,1.577-2.716,3.065-2.815,3.173c-0.113,0.122-0.242,0.26-0.618,0.296
		c-0.709,0.07-2.308,0.119-2.308,0.12c-0.077,0-0.132-0.012-0.167-0.026c0.173-0.387,2.299-5.002,3.287-7.119l0.651-1.393
		l-1.538-0.029l-4.434-0.082l-0.413-0.008L10.621,18.2c-0.354,0.338-0.992,0.979-1.555,1.545c-0.446,0.448-0.844,0.848-1.012,1.008
		C8.028,20.778,8,20.807,7.968,20.841c-0.1,0.111-0.488,0.18-0.833,0.211c-0.042-0.001-0.078-0.005-0.106-0.01
		c0.057-0.242,0.179-0.769,0.321-1.386c0.266-1.164,0.61-2.653,0.725-3.131l0.057-0.237l-0.059-0.237
		c-0.463-1.888-0.947-4.098-1.044-4.601c0.008-0.002,0.016-0.003,0.024-0.003L7.1,11.448c0.716,0.063,0.89,0.19,0.917,0.217
		l0.065,0.065l0.113,0.111c0.18,0.179,0.473,0.481,0.802,0.819c0.425,0.436,0.906,0.932,1.28,1.306
		c0.138,0.138,0.263,0.26,0.364,0.358l0.297,0.289l0.416-0.007l4.424-0.074l1.534-0.026l-0.642-1.392
		c-1.002-2.173-3.127-6.847-3.281-7.198c0.033-0.013,0.08-0.026,0.14-0.027c0.017,0,1.634,0.049,2.342,0.116
		c0.313,0.029,0.454,0.133,0.542,0.22l0.055,0.057c0.098,0.107,1.403,1.596,2.786,3.172c1.483,1.691,3.192,3.639,4.153,4.73
		l0.3,0.339l0.452-0.001l7.291-0.007c1.324,0.002,2.094,0.574,2.434,0.914c0.372,0.372,0.496,0.727,0.497,0.832
		C34.382,16.662,33.465,17.986,31.44,17.989z"/>
	<g>
		<defs>
			<path id="SVGID_3_" d="M16.207,18.498l7.2-4.314l9.157-0.543c4.808,3.866,0.641,4.918,0.641,4.918l-9.507-0.562l-7.171,8.983
				l-3.372-0.119l2.594-7.856"/>
		</defs>
		<clipPath id="SVGID_4_">
			<use xlink:href="#SVGID_3_"  overflow="visible"/>
		</clipPath>
		<g clip-path="url(#SVGID_4_)">
			<defs>
				<rect id="SVGID_5_" x="-444" y="-861.11" width="1280" height="1260"/>
			</defs>
			<clipPath id="SVGID_6_">
				<use xlink:href="#SVGID_5_"  overflow="visible"/>
			</clipPath>
			<rect x="8.155" y="8.641" clip-path="url(#SVGID_6_)" fill="#5E99FB" width="31.726" height="23.339"/>
		</g>
	</g>
	<g>
		<defs>
			<rect id="SVGID_7_" x="6" y="4.89" width="29.383" height="22.683"/>
		</defs>
		<clipPath id="SVGID_8_">
			<use xlink:href="#SVGID_7_"  overflow="visible"/>
		</clipPath>
		<g clip-path="url(#SVGID_8_)">
			<defs>
				<rect id="SVGID_9_" x="-444" y="-861.11" width="1280" height="1260"/>
			</defs>
			<clipPath id="SVGID_10_">
				<use xlink:href="#SVGID_9_"  overflow="visible"/>
			</clipPath>
			<g clip-path="url(#SVGID_10_)" enable-background="new    ">
				<g>
					<defs>
						<rect id="SVGID_11_" x="6" y="4.89" width="30" height="23"/>
					</defs>
					<clipPath id="SVGID_12_">
						<use xlink:href="#SVGID_11_"  overflow="visible"/>
					</clipPath>
					<g clip-path="url(#SVGID_12_)">
						<defs>
							<path id="SVGID_13_" d="M33.884,15.429c0.372,0.372,0.496,0.727,0.497,0.832c0.001,0.401-0.916,1.725-2.941,1.728
								l-7.295,0.008h-0.447L23.4,18.332c-0.956,1.075-2.651,2.985-4.126,4.651c-1.397,1.577-2.716,3.065-2.815,3.173
								c-0.113,0.122-0.242,0.26-0.618,0.296c-0.709,0.07-2.308,0.119-2.308,0.12c-0.077,0-0.132-0.012-0.167-0.026
								c0.173-0.387,2.299-5.002,3.287-7.119l0.651-1.393l-1.538-0.029l-4.434-0.082l-0.413-0.008L10.621,18.2
								c-0.354,0.338-0.992,0.979-1.555,1.545c-0.446,0.448-0.844,0.848-1.012,1.008C8.028,20.778,8,20.807,7.968,20.841
								c-0.1,0.111-0.488,0.18-0.833,0.211c-0.042-0.001-0.078-0.005-0.106-0.01c0.057-0.242,0.179-0.769,0.321-1.386
								c0.266-1.164,0.61-2.653,0.725-3.131l0.057-0.237l-0.059-0.237c-0.463-1.888-0.947-4.098-1.044-4.601
								c0.008-0.002,0.016-0.003,0.024-0.003L7.1,11.448c0.716,0.063,0.89,0.19,0.917,0.217l0.065,0.065l0.113,0.111
								c0.18,0.179,0.473,0.481,0.802,0.819c0.425,0.436,0.906,0.932,1.28,1.306c0.138,0.138,0.263,0.26,0.364,0.358l0.297,0.289
								l0.416-0.007l4.424-0.074l1.534-0.026l-0.642-1.392c-1.002-2.173-3.127-6.847-3.281-7.198c0.033-0.013,0.08-0.026,0.14-0.027
								c0.017,0,1.634,0.049,2.342,0.116c0.313,0.029,0.454,0.133,0.542,0.22l0.055,0.057c0.098,0.107,1.403,1.596,2.786,3.172
								c1.483,1.691,3.192,3.639,4.153,4.73l0.3,0.339l0.452-0.001l7.291-0.007C32.774,14.517,33.544,15.089,33.884,15.429
								 M34.591,14.722c-0.655-0.655-1.709-1.206-3.144-1.204l-7.292,0.007c-1.923-2.182-6.829-7.785-6.956-7.919
								c-0.022-0.025-0.049-0.054-0.082-0.086c-0.177-0.178-0.518-0.451-1.155-0.511c-0.749-0.07-2.405-0.119-2.405-0.119
								c-0.415,0.001-0.774,0.152-0.99,0.42c-0.131,0.16-0.316,0.504-0.1,1c0.132,0.303,2.288,5.043,3.294,7.222l-4.424,0.075
								c-0.097-0.096-0.219-0.213-0.353-0.347c-0.664-0.664-1.671-1.713-2.083-2.125c-0.054-0.055-0.098-0.099-0.13-0.129
								c-0.004-0.004-0.01-0.01-0.015-0.015c-0.014-0.015-0.031-0.032-0.05-0.05c-0.146-0.146-0.449-0.394-1.519-0.488L7.093,10.45
								c-0.412,0-0.664,0.157-0.804,0.288c-0.143,0.134-0.307,0.373-0.268,0.738c0.022,0.219,0.579,2.77,1.082,4.816
								c-0.192,0.804-1.025,4.449-1.074,4.645c-0.075,0.287-0.003,0.565,0.2,0.782c0.007,0.007,0.012,0.012,0.017,0.017
								c0.204,0.204,0.515,0.311,0.919,0.318c1.258-0.101,1.459-0.461,1.581-0.577c0.379-0.361,1.933-1.946,2.569-2.555l4.434,0.083
								c-1.011,2.165-3.168,6.847-3.301,7.149c-0.218,0.499-0.031,0.842,0.099,1.002c0.021,0.026,0.044,0.051,0.069,0.076
								c0.218,0.218,0.547,0.342,0.92,0.341c0,0,1.65-0.051,2.403-0.124c0.754-0.073,1.094-0.439,1.254-0.612
								c0.112-0.118,5.028-5.675,6.955-7.84l7.294-0.007c2.585-0.003,3.941-1.769,3.941-2.729
								C35.382,15.836,35.114,15.245,34.591,14.722"/>
						</defs>
						<use xlink:href="#SVGID_13_"  overflow="visible" fill-rule="evenodd" clip-rule="evenodd" fill="#211915"/>
						<clipPath id="SVGID_14_">
							<use xlink:href="#SVGID_13_"  overflow="visible"/>
						</clipPath>
						<g clip-path="url(#SVGID_14_)">
							<defs>
								<rect id="SVGID_15_" x="6" y="4.89" width="30" height="23"/>
							</defs>
							<use xlink:href="#SVGID_15_"  overflow="visible" fill="#211915"/>
							<clipPath id="SVGID_16_">
								<use xlink:href="#SVGID_15_"  overflow="visible"/>
							</clipPath>
							<rect x="1" y="-0.11" clip-path="url(#SVGID_16_)" fill="#211915" width="39.383" height="32.683"/>
						</g>
					</g>
				</g>
			</g>
		</g>
	</g>
	<line fill="none" stroke="#211915" stroke-miterlimit="10" x1="16.667" y1="18.417" x2="23.407" y2="14.184"/>
</g>
</svg>
