<?xml version="1.0" encoding="UTF-8" standalone="no"?>
<svg width="17px" height="17px" viewBox="0 0 17 17" version="1.1" xmlns="http://www.w3.org/2000/svg" xmlns:xlink="http://www.w3.org/1999/xlink">
    <!-- Generator: Sketch 39 (31667) - http://www.bohemiancoding.com/sketch -->
    <title>Shape</title>
    <desc>Created with Sketch.</desc>
    <defs></defs>
    <g id="Page-1" stroke="none" stroke-width="1" fill="none" fill-rule="evenodd">
        <g id="25px" transform="translate(-992.000000, -2123.000000)" stroke="#000000" fill="#000000">
            <path d="M1001.00497,2131.48438 L1007.89198,2138.3714 C1008.03565,2138.51507 1008.03565,2138.74738 1007.89198,2138.89176 C1007.7483,2139.03615 1007.51671,2139.03544 1007.37232,2138.89176 L1000.48531,2132.00475 L993.597586,2138.89176 C993.453914,2139.03544 993.221606,2139.03544 993.077219,2138.89176 C992.93426,2138.74809 992.93426,2138.51578 993.077219,2138.3714 L999.964945,2131.48438 L993.077219,2124.59737 C992.93426,2124.45298 992.93426,2124.22139 993.077219,2124.077 C993.220892,2123.93333 993.453199,2123.93333 993.597586,2124.077 L1000.48531,2130.96402 L1007.37232,2124.077 C1007.516,2123.93333 1007.74759,2123.93333 1007.89198,2124.077 C1008.03636,2124.22068 1008.03565,2124.45227 1007.89198,2124.59737 L1001.00497,2131.48438 L1001.00497,2131.48438 Z" id="Shape"></path>
        </g>
    </g>
</svg>