<?xml version="1.0" encoding="UTF-8" standalone="no"?>
<svg width="19px" height="22px" viewBox="0 0 19 22" version="1.1" xmlns="http://www.w3.org/2000/svg" xmlns:xlink="http://www.w3.org/1999/xlink">
    <!-- Generator: Sketch 3.8.3 (29802) - http://www.bohemiancoding.com/sketch -->
    <title>Shape</title>
    <desc>Created with Sketch.</desc>
    <defs></defs>
    <g id="Page-1" stroke="none" stroke-width="1" fill="none" fill-rule="evenodd">
        <g id="25px" transform="translate(-5.000000, -1996.000000)" fill="#FFFFFF">
            <path d="M23.4215121,2017.089 C23.4215121,2017.089 22.6280474,2017.58373 14.4689165,2017.58373 C6.30978562,2017.58373 5.54567653,2017.089 5.54567653,2017.089 C4.51909382,2015.60482 5.03627048,2013.13463 6.06371659,2012.14517 C6.57916645,2011.64958 10.5067735,2010.46672 12.0850689,2010.0048 C9.83677501,2008.69675 8.45706165,2005.65845 8.45706165,2002.80923 C8.45706165,1999.04739 9.55444318,1995.997 14.4939551,1995.997 C19.4334671,1995.997 20.5308486,1999.04653 20.5308486,2002.80923 C20.5308486,2005.55052 19.252153,2008.46363 17.1515006,2009.84507 C17.8370403,2010.07474 22.3396718,2011.59087 22.9112427,2012.14517 C23.9317816,2013.13463 24.4411876,2015.60482 23.4215121,2017.089 L23.4215121,2017.089 Z M16.9166558,2010.67653 L16.7405222,2010.67653 L16.5428035,2009.6983 L16.5428035,2009.23206 C18.513946,2008.06129 19.6855799,2005.29582 19.6855799,2002.79282 C19.6855799,1999.51363 18.820453,1996.85522 14.4930917,1996.85522 C10.1674572,1996.85522 9.30146695,1999.51363 9.30146695,2002.79282 C9.30146695,2005.64291 10.8184609,2008.83749 13.3085068,2009.62318 L13.3085068,2009.6983 L13.1107882,2010.67653 L12.8647191,2010.67653 C10.2028566,2011.43459 7.0972065,2012.44736 6.63528745,2012.79013 C5.98428378,2013.41955 5.53099873,2015.19038 6.10947679,2016.35079 C6.69313526,2016.4639 8.65823388,2016.72033 14.4689165,2016.72033 C20.285643,2016.72033 22.264556,2016.4639 22.855985,2016.34993 C23.4292827,2015.18607 22.9811781,2013.41437 22.3111796,2012.76596 C21.9166057,2012.45427 19.226251,2011.44582 16.9166558,2010.67653 L16.9166558,2010.67653 Z" id="Shape"></path>
        </g>
    </g>
</svg>