<?xml version="1.0" encoding="UTF-8" standalone="no"?>
<svg width="12px" height="12px" viewBox="0 0 12 12" version="1.1" xmlns="http://www.w3.org/2000/svg" xmlns:xlink="http://www.w3.org/1999/xlink">
    <!-- Generator: Sketch 39 (31667) - http://www.bohemiancoding.com/sketch -->
    <title>Shape</title>
    <desc>Created with Sketch.</desc>
    <defs></defs>
    <g id="Page-1" stroke="none" stroke-width="1" fill="none" fill-rule="evenodd">
        <g id="25px" transform="translate(-992.000000, -2123.000000)" stroke="#FFFFFF" fill="#FFFFFF">
            <path d="M998.33199,2128.98434 L1002.92791,2133.58026 C1003.02379,2133.67614 1003.02379,2133.83117 1002.92791,2133.92752 C1002.83203,2134.02387 1002.67749,2134.0234 1002.58113,2133.92752 L997.985208,2129.3316 L993.388809,2133.92752 C993.292931,2134.0234 993.137905,2134.0234 993.04155,2133.92752 C992.94615,2133.83164 992.94615,2133.67662 993.04155,2133.58026 L997.63795,2128.98434 L993.04155,2124.38842 C992.94615,2124.29206 992.94615,2124.13751 993.04155,2124.04116 C993.137428,2123.94528 993.292454,2123.94528 993.388809,2124.04116 L997.985208,2128.63708 L1002.58113,2124.04116 C1002.67701,2123.94528 1002.83156,2123.94528 1002.92791,2124.04116 C1003.02427,2124.13704 1003.02379,2124.29158 1002.92791,2124.38842 L998.33199,2128.98434 L998.33199,2128.98434 Z" id="Shape"></path>
        </g>
    </g>
</svg>