<?xml version="1.0" encoding="UTF-8" standalone="no"?>
<svg width="15px" height="16px" viewBox="0 0 15 16" version="1.1" xmlns="http://www.w3.org/2000/svg" xmlns:xlink="http://www.w3.org/1999/xlink">
    <!-- Generator: Sketch 3.8.3 (29802) - http://www.bohemiancoding.com/sketch -->
    <title>Shape</title>
    <desc>Created with Sketch.</desc>
    <defs></defs>
    <g id="Page-1" stroke="none" stroke-width="1" fill="none" fill-rule="evenodd">
        <g id="icon-calendar-mobile-search" transform="translate(0.000000, -1.000000)" fill="#FFFFFF">
            <g id="Page-1">
                <g id="25px">
                    <path d="M13.2391308,16.7595 L1.26086925,16.7595 C0.56486925,16.7595 0,16.1946307 0,15.498 L0,6.041477 L0,6.041477 L0,5.411046 L0,5.411046 L0,3.52036925 C0,2.82436925 0.56486925,2.26013075 1.26086925,2.26013075 L3.78576078,2.26013075 L3.78576078,0.998 L4.41682615,0.998 L4.41682615,2.26013075 L10.0819131,2.26013075 L10.0819131,0.998 L10.7129785,0.998 L10.7129785,2.26013075 L13.2391308,2.26013075 C13.9351307,2.26013075 14.5,2.82436925 14.5,3.52036925 L14.5,15.498 C14.5,16.1952615 13.9351307,16.7595 13.2391308,16.7595 L13.2391308,16.7595 L13.2391308,16.7595 Z M13.8695654,3.61511547 C13.8695654,3.21481524 13.5871308,2.88993825 13.2391308,2.88993825 L10.7136085,2.88993825 L10.7136085,3.61438992 L10.0825438,3.61438992 L10.0825438,2.88993825 L4.41745617,2.88993825 L4.41745617,3.61438992 L3.78639153,3.61438992 L3.78639153,2.88993825 L1.26086925,2.88993825 C0.912239225,2.88993825 0.630434625,3.21481524 0.630434625,3.61511547 L0.630434625,5.78993825 L13.8695654,5.78993825 L13.8695654,3.61511547 L13.8695654,3.61511547 L13.8695654,3.61511547 Z M13.8695654,6.041477 L0.630434625,6.041477 L0.630434625,15.498 C0.630434625,15.8472615 0.912239225,16.1296925 1.26086925,16.1296925 L13.2391308,16.1296925 C13.5871308,16.1296925 13.8695654,15.8472615 13.8695654,15.498 L13.8695654,6.041477 L13.8695654,6.041477 L13.8695654,6.041477 Z M9.46471767,11.7153922 L12.5998693,11.7153922 L12.5998693,14.8675618 L9.46471767,14.8675618 L9.46471767,11.7153922 L9.46471767,11.7153922 L9.46471767,11.7153922 Z M10.1039784,15.2439383 L13.0039784,15.2439383 L13.0039784,12.3439383 L10.1039784,12.3439383 L10.1039784,15.2439383 L10.1039784,15.2439383 L10.1039784,15.2439383 Z M9.46471767,7.30234625 L12.5998693,7.30234625 L12.5998693,10.4538923 L9.46471767,10.4538923 L9.46471767,7.30234625 L9.46471767,7.30234625 L9.46471767,7.30234625 Z M10.1039784,10.831523 L13.0039784,10.831523 L13.0039784,7.931523 L10.1039784,7.931523 L10.1039784,10.831523 L10.1039784,10.831523 L10.1039784,10.831523 Z M5.68210847,11.7153922 L8.81726078,11.7153922 L8.81726078,14.8675618 L5.68210847,14.8675618 L5.68210847,11.7153922 L5.68210847,11.7153922 L5.68210847,11.7153922 Z M6.32136925,15.2439383 L9.22136925,15.2439383 L9.22136925,12.3439383 L6.32136925,12.3439383 L6.32136925,15.2439383 L6.32136925,15.2439383 L6.32136925,15.2439383 Z M5.68210847,7.30234625 L8.81726078,7.30234625 L8.81726078,10.4538923 L5.68210847,10.4538923 L5.68210847,7.30234625 L5.68210847,7.30234625 L5.68210847,7.30234625 Z M6.32136925,10.831523 L9.22136925,10.831523 L9.22136925,7.931523 L6.32136925,7.931523 L6.32136925,10.831523 L6.32136925,10.831523 L6.32136925,10.831523 Z M1.8995,11.7153922 L5.0346523,11.7153922 L5.0346523,14.8675618 L1.8995,14.8675618 L1.8995,11.7153922 L1.8995,11.7153922 L1.8995,11.7153922 Z M2.53876077,15.2439383 L5.43876077,15.2439383 L5.43876077,12.3439383 L2.53876077,12.3439383 L2.53876077,15.2439383 L2.53876077,15.2439383 L2.53876077,15.2439383 Z M1.8995,7.30234625 L5.0346523,7.30234625 L5.0346523,10.4538923 L1.8995,10.4538923 L1.8995,7.30234625 L1.8995,7.30234625 L1.8995,7.30234625 Z M2.53876077,10.831523 L5.43876077,10.831523 L5.43876077,7.931523 L2.53876077,7.931523 L2.53876077,10.831523 L2.53876077,10.831523 L2.53876077,10.831523 Z" id="Shape"></path>
                </g>
            </g>
        </g>
    </g>
</svg>