<?xml version="1.0" encoding="UTF-8" standalone="no"?>
<svg width="19px" height="11px" viewBox="0 0 19 11" version="1.1" xmlns="http://www.w3.org/2000/svg" xmlns:xlink="http://www.w3.org/1999/xlink">
    <!-- Generator: Sketch 3.8.3 (29802) - http://www.bohemiancoding.com/sketch -->
    <title>Shape</title>
    <desc>Created with Sketch.</desc>
    <defs></defs>
    <g id="Page-1" stroke="none" stroke-width="1" fill="none" fill-rule="evenodd">
        <g id="25px" transform="translate(-919.000000, -2184.000000)" fill="#FFFFFF">
            <path d="M937.733,2194.938 C937.478,2195.074 937.152,2194.993 937.004,2194.758 L928.499,2185.211 L919.994,2194.758 C919.847,2194.992 919.52,2195.073 919.265,2194.938 C919.009,2194.803 918.922,2194.503 919.07,2194.269 L928.004,2184.241 C928.099,2184.089 928.272,2184.011 928.449,2184.005 C928.466,2184.003 928.481,2184.003 928.499,2184.001 C928.516,2184.003 928.532,2184.003 928.549,2184.005 C928.727,2184.011 928.899,2184.089 928.994,2184.241 L937.927,2194.269 C938.076,2194.503 937.988,2194.803 937.733,2194.938 L937.733,2194.938 Z" id="Shape"></path>
        </g>
    </g>
</svg>