<?xml version="1.0" encoding="UTF-8" standalone="no"?>
<svg width="18px" height="17px" viewBox="0 0 18 17" version="1.1" xmlns="http://www.w3.org/2000/svg" xmlns:xlink="http://www.w3.org/1999/xlink">
    <!-- Generator: Sketch 39.1 (31720) - http://www.bohemiancoding.com/sketch -->
    <title>Shape</title>
    <desc>Created with Sketch.</desc>
    <defs></defs>
    <g id="Page-1" stroke="none" stroke-width="1" fill="none" fill-rule="evenodd">
        <g id="25px" transform="translate(-1366.000000, -1447.000000)" fill="#FFFFFF">
            <path d="M1378.79473,1458.55886 L1374.8399,1458.55886 L1374.8399,1458.53778 C1374.76306,1458.54186 1374.6903,1458.55886 1374.61278,1458.55886 L1373.59279,1458.55886 L1374.1599,1461.9595 L1370.07995,1463.99948 L1369.46932,1458.50038 C1367.41914,1458.21411 1366,1456.53181 1366,1454.47823 C1366,1452.22542 1367.70134,1450.39896 1370.07995,1450.39896 L1374.61278,1450.39896 C1374.6903,1450.39896 1374.76306,1450.41528 1374.8399,1450.41936 L1374.8399,1450.39896 L1378.79609,1450.39896 L1383.01,1446.999 L1383.01,1461.95882 L1378.79473,1458.55886 L1378.79473,1458.55886 Z M1370.64775,1462.95433 L1373.40715,1461.57531 L1372.90464,1458.55886 L1370.16019,1458.55886 L1370.64775,1462.95433 L1370.64775,1462.95433 Z M1378.23918,1451.07827 L1374.1599,1451.07827 L1374.1599,1451.07895 L1370.07995,1451.07895 C1368.20181,1451.07895 1366.67999,1452.60145 1366.67999,1454.47891 C1366.67999,1456.35705 1368.20181,1457.87887 1370.07995,1457.87887 L1374.8399,1457.87887 L1374.8399,1457.87751 L1378.23918,1457.87751 L1378.23918,1451.07827 L1378.23918,1451.07827 Z M1382.29601,1448.34266 L1378.91985,1451.17891 L1378.91985,1457.77959 L1382.29601,1460.61584 L1382.29601,1448.34266 L1382.29601,1448.34266 Z" id="Shape"></path>
        </g>
    </g>
</svg>