<?xml version="1.0" encoding="utf-8"?>
<!-- Generator: Adobe Illustrator 17.0.0, SVG Export Plug-In . SVG Version: 6.00 Build 0)  -->
<!DOCTYPE svg PUBLIC "-//W3C//DTD SVG 1.1//EN" "http://www.w3.org/Graphics/SVG/1.1/DTD/svg11.dtd" [
	<!ENTITY ns_extend "http://ns.adobe.com/Extensibility/1.0/">
	<!ENTITY ns_ai "http://ns.adobe.com/AdobeIllustrator/10.0/">
	<!ENTITY ns_graphs "http://ns.adobe.com/Graphs/1.0/">
	<!ENTITY ns_vars "http://ns.adobe.com/Variables/1.0/">
	<!ENTITY ns_imrep "http://ns.adobe.com/ImageReplacement/1.0/">
	<!ENTITY ns_sfw "http://ns.adobe.com/SaveForWeb/1.0/">
	<!ENTITY ns_custom "http://ns.adobe.com/GenericCustomNamespace/1.0/">
	<!ENTITY ns_adobe_xpath "http://ns.adobe.com/XPath/1.0/">
]>
<svg version="1.1" id="Capa_1" xmlns:x="&ns_extend;" xmlns:i="&ns_ai;" xmlns:graph="&ns_graphs;"
	 xmlns="http://www.w3.org/2000/svg" xmlns:xlink="http://www.w3.org/1999/xlink" x="0px" y="0px" width="28px" height="23.625px"
	 viewBox="0 0 28 23.625" enable-background="new 0 0 28 23.625" xml:space="preserve">
<metadata>
	<sfw  xmlns="&ns_sfw;">
		<slices></slices>
		<sliceSourceBounds  width="1280" height="1260" bottomLeftOrigin="true" y="-684.28" x="-1228"></sliceSourceBounds>
	</sfw>
</metadata>
<g>
	<defs>
		<polygon id="SVGID_1_" points="22,11.282 22,3.28 6,3.28 6,11.282 6,19.284 22,19.284 		"/>
	</defs>
	<clipPath id="SVGID_2_">
		<use xlink:href="#SVGID_1_"  overflow="visible"/>
	</clipPath>
	<g clip-path="url(#SVGID_2_)">
		<defs>
			<rect id="SVGID_3_" x="-1228" y="-575.72" width="1280" height="1260"/>
		</defs>
		<clipPath id="SVGID_4_">
			<use xlink:href="#SVGID_3_"  overflow="visible"/>
		</clipPath>
		<g clip-path="url(#SVGID_4_)" enable-background="new    ">
			<g>
				<defs>
					<rect id="SVGID_5_" x="6" y="3.28" width="16" height="16"/>
				</defs>
				<clipPath id="SVGID_6_">
					<use xlink:href="#SVGID_5_"  overflow="visible"/>
				</clipPath>
				<g clip-path="url(#SVGID_6_)">
					<defs>
						<path id="SVGID_7_" d="M17.5,3.92c2.669,0,3.86,1.247,3.86,4.044c0,2.805-4.96,8.141-7.361,10.442
							C11.599,16.112,6.64,10.788,6.64,7.964c0-2.797,1.19-4.044,3.86-4.044c1.752,0,2.929,2.07,2.94,2.09l0.573,1.034l0.553-1.046
							C14.577,5.978,15.687,3.92,17.5,3.92 M17.5,3.28C15.264,3.28,14,5.7,14,5.7s-1.338-2.42-3.5-2.42C7.462,3.28,6,4.807,6,7.964
							c0,3.948,8,11.32,8,11.32s8-7.397,8-11.32C22,4.807,20.538,3.28,17.5,3.28"/>
					</defs>
					<clipPath id="SVGID_8_">
						<use xlink:href="#SVGID_7_"  overflow="visible"/>
					</clipPath>
					<g clip-path="url(#SVGID_8_)">
						<defs>
							<rect id="SVGID_9_" x="6" y="3.28" width="16" height="16"/>
						</defs>
						<clipPath id="SVGID_10_">
							<use xlink:href="#SVGID_9_"  overflow="visible"/>
						</clipPath>
						<rect x="1" y="-1.72" clip-path="url(#SVGID_10_)" fill="#FFFFFF" width="26" height="26.004"/>
					</g>
				</g>
			</g>
		</g>
	</g>
</g>
</svg>
