<?xml version="1.0" encoding="UTF-8" standalone="no"?>
<svg width="20px" height="22px" viewBox="0 0 20 22" version="1.1" xmlns="http://www.w3.org/2000/svg" xmlns:xlink="http://www.w3.org/1999/xlink">
    <!-- Generator: Sketch 3.8.3 (29802) - http://www.bohemiancoding.com/sketch -->
    <title>Shape</title>
    <desc>Created with Sketch.</desc>
    <defs></defs>
    <g id="Page-1" stroke="none" stroke-width="1" fill="none" fill-rule="evenodd">
        <g id="25px" transform="translate(-154.000000, -2895.000000)" fill="#FFFFFF">
            <path d="M172.26087,2916.738 L155.73913,2916.738 C154.77913,2916.738 154,2915.95887 154,2914.998 L154,2901.95452 L154,2901.95452 L154,2901.08496 L154,2901.08496 L154,2898.47713 C154,2897.51713 154.77913,2896.73887 155.73913,2896.73887 L159.221739,2896.73887 L159.221739,2894.998 L160.092174,2894.998 L160.092174,2896.73887 L167.906087,2896.73887 L167.906087,2894.998 L168.776522,2894.998 L168.776522,2896.73887 L172.26087,2896.73887 C173.22087,2896.73887 174,2897.51713 174,2898.47713 L174,2914.998 C174,2915.95974 173.22087,2916.738 172.26087,2916.738 L172.26087,2916.738 Z M173.130435,2898.47713 C173.130435,2897.99713 172.74087,2897.60757 172.26087,2897.60757 L168.777391,2897.60757 L168.777391,2898.47626 L167.906957,2898.47626 L167.906957,2897.60757 L160.093043,2897.60757 L160.093043,2898.47626 L159.222609,2898.47626 L159.222609,2897.60757 L155.73913,2897.60757 C155.258261,2897.60757 154.869565,2897.99713 154.869565,2898.47713 L154.869565,2901.08496 L173.130435,2901.08496 L173.130435,2898.47713 L173.130435,2898.47713 Z M173.130435,2901.95452 L154.869565,2901.95452 L154.869565,2914.998 C154.869565,2915.47974 155.258261,2915.8693 155.73913,2915.8693 L172.26087,2915.8693 C172.74087,2915.8693 173.130435,2915.47974 173.130435,2914.998 L173.130435,2901.95452 L173.130435,2901.95452 Z M167.054783,2909.78061 L171.37913,2909.78061 L171.37913,2914.12843 L167.054783,2914.12843 L167.054783,2909.78061 L167.054783,2909.78061 Z M167.936522,2913.25713 L170.496522,2913.25713 L170.496522,2910.64757 L167.936522,2910.64757 L167.936522,2913.25713 L167.936522,2913.25713 Z M167.054783,2903.69365 L171.37913,2903.69365 L171.37913,2908.04061 L167.054783,2908.04061 L167.054783,2903.69365 L167.054783,2903.69365 Z M167.936522,2907.17017 L170.496522,2907.17017 L170.496522,2904.56148 L167.936522,2904.56148 L167.936522,2907.17017 L167.936522,2907.17017 Z M161.837391,2909.78061 L166.161739,2909.78061 L166.161739,2914.12843 L161.837391,2914.12843 L161.837391,2909.78061 L161.837391,2909.78061 Z M162.71913,2913.25713 L165.27913,2913.25713 L165.27913,2910.64757 L162.71913,2910.64757 L162.71913,2913.25713 L162.71913,2913.25713 Z M161.837391,2903.69365 L166.161739,2903.69365 L166.161739,2908.04061 L161.837391,2908.04061 L161.837391,2903.69365 L161.837391,2903.69365 Z M162.71913,2907.17017 L165.27913,2907.17017 L165.27913,2904.56148 L162.71913,2904.56148 L162.71913,2907.17017 L162.71913,2907.17017 Z M156.62,2909.78061 L160.944348,2909.78061 L160.944348,2914.12843 L156.62,2914.12843 L156.62,2909.78061 L156.62,2909.78061 Z M157.501739,2913.25713 L160.061739,2913.25713 L160.061739,2910.64757 L157.501739,2910.64757 L157.501739,2913.25713 L157.501739,2913.25713 Z M156.62,2903.69365 L160.944348,2903.69365 L160.944348,2908.04061 L156.62,2908.04061 L156.62,2903.69365 L156.62,2903.69365 Z M157.501739,2907.17017 L160.061739,2907.17017 L160.061739,2904.56148 L157.501739,2904.56148 L157.501739,2907.17017 L157.501739,2907.17017 Z" id="Shape"></path>
        </g>
    </g>
</svg>