<?xml version="1.0" encoding="UTF-8" standalone="no"?>
<svg width="15px" height="15px" viewBox="0 0 15 15" version="1.1" xmlns="http://www.w3.org/2000/svg" xmlns:xlink="http://www.w3.org/1999/xlink">
    <!-- Generator: Sketch 3.8.3 (29802) - http://www.bohemiancoding.com/sketch -->
    <title>Shape</title>
    <desc>Created with Sketch.</desc>
    <defs></defs>
    <g id="Page-1" stroke="none" stroke-width="1" fill="none" fill-rule="evenodd">
        <g id="icon-fly-mobile-search" transform="translate(0.000000, -1.000000)" fill="#FFFFFF">
            <g id="Page-1">
                <g id="25px">
                    <path d="M13.6979072,1.59696252 C14.0134854,1.59696252 14.2168719,1.69475502 14.2618689,1.73914752 C14.4322577,1.90894002 14.6050465,2.85927255 13.7471034,3.71962007 L10.6555111,6.81781015 L10.4659238,7.00739516 L10.4815224,7.27618017 C10.5319194,8.13772019 10.6237134,9.66701523 10.7047074,10.9995328 C10.7809029,12.2612428 10.8522976,13.4521678 10.8564976,13.5397603 C10.8600969,13.6393528 10.8642969,13.7527453 10.7197066,13.9279303 C10.4485246,14.2579078 9.79096883,14.9574629 9.79156883,14.9574629 L9.79156883,14.9574629 C9.75917108,14.9904629 9.73037333,15.0084629 9.70997408,15.0174629 C9.61878008,14.7798779 8.5628513,11.9198653 8.08408354,10.6029553 L7.76910453,9.73601523 L7.10434876,10.3761702 L5.18867771,12.2222503 L5.00988971,12.3938353 L5.00448971,12.6416203 C4.99789046,12.9349978 4.99909046,13.4773603 5.00028971,13.9567303 C5.00088971,14.3359079 5.00208971,14.6742854 4.99849046,14.8134704 C4.99789046,14.8350704 4.99849046,14.8590704 4.99969046,14.8872704 C5.00388971,14.9766629 4.8688987,15.1704479 4.7357077,15.3300404 C4.7171092,15.3474404 4.70030995,15.3612404 4.68651145,15.3708329 C4.6079167,15.2442479 4.43572794,14.9688629 4.23414144,14.6466854 C3.85376693,14.0401228 3.36779916,13.2625753 3.21360966,13.0105978 L3.13741491,12.8864053 L3.01202315,12.8108053 C2.01429063,12.2060503 0.871367097,11.4740953 0.61698359,11.3013103 C0.61938359,11.2971103 0.62238359,11.2935103 0.625983591,11.2899103 L0.646382091,11.2707103 C0.9769596,10.9935328 1.10475135,10.9737328 1.12754985,10.9737328 L1.18214611,10.9737328 L1.27753936,10.9725328 C1.42992961,10.9725328 1.68251237,10.9761328 1.96509363,10.9803328 C2.33046889,10.9851328 2.74504115,10.9911328 3.06242015,10.9911328 C3.17941191,10.9911328 3.28440516,10.9899328 3.36839916,10.9887328 L3.61738267,10.9851328 L3.79077142,10.8057403 L5.63624772,8.89726771 L6.27580424,8.23611269 L5.41306272,7.91753518 C4.06615268,7.42077267 1.18154611,6.33964014 0.967360349,6.25564764 C0.9757596,6.23644764 0.99015885,6.21064764 1.01535735,6.18485514 C1.0225566,6.17825514 1.72930937,5.51290012 2.05808763,5.24051511 C2.20327788,5.11992261 2.30707038,5.10432261 2.38146589,5.10432261 L2.42886214,5.10492261 C2.51585689,5.10912261 3.70137742,5.18712261 4.9564927,5.26871511 C6.30280274,5.35690761 7.85429853,5.45830012 8.72484005,5.51350012 L8.99602206,5.53029262 L9.18740932,5.33830761 L12.2778024,2.24191753 C12.8399642,1.68095502 13.4093267,1.59696252 13.6979072,1.59696252 L13.6979072,1.59696252 L13.6979072,1.59696252 Z M13.6979072,0.997 C13.1423439,0.997 12.4613897,1.21058501 11.8530309,1.82014752 L8.7626378,4.9165376 C7.02155476,4.8067451 2.56325314,4.51096759 2.45226064,4.50796759 C2.43246214,4.50676759 2.40846364,4.50616759 2.38086589,4.50616759 C2.23027563,4.50616759 1.96989288,4.53496009 1.67411312,4.7797451 C1.32673636,5.06773011 0.60318509,5.74928513 0.60318509,5.74928513 C0.427996335,5.92567013 0.339802333,6.14225514 0.361400834,6.34744014 C0.374000084,6.47103264 0.441195586,6.69541765 0.743575344,6.81421015 C0.927763348,6.88680266 3.85376693,7.98293518 5.20487621,8.4808977 L3.35939991,10.3893702 C3.27780591,10.3899702 3.17641266,10.3917702 3.06242015,10.3917702 C2.49965764,10.3917702 1.62731612,10.3737702 1.27753936,10.3737702 C1.23134311,10.3737702 1.19414536,10.3737702 1.16774685,10.3743702 L1.1551476,10.3743702 L1.1125506,10.3743702 C0.98835885,10.3743702 0.754974594,10.3977702 0.261207581,10.8117403 L0.21981058,10.8501403 C0.0452225752,11.0253253 0.00502482414,11.1987178 0.000825574029,11.3139103 C-0.00277442607,11.4315028 0.0290233248,11.6024878 0.200012079,11.7404803 C0.302605332,11.8238728 1.62131687,12.6698203 2.70244415,13.3243753 C2.9622269,13.7473453 4.15494668,15.6468179 4.21734294,15.7506104 C4.30733619,15.9048029 4.45612644,15.9917954 4.63431445,15.9977954 L4.6487137,15.9977954 C4.8215017,15.9977954 4.99909046,15.9114029 5.17307846,15.7428104 C5.66384547,15.1662479 5.59664997,14.9280629 5.59904997,14.8272704 C5.60684922,14.5134929 5.59364997,13.1815828 5.60504922,12.6536203 L7.52132102,10.8075403 C8.01088804,12.1550503 9.08241606,15.0564554 9.15381157,15.2412479 C9.27320332,15.5454254 9.49758832,15.6114179 9.62118008,15.6240179 C9.64097933,15.6264179 9.66137783,15.6270179 9.68237633,15.6270179 C9.86776358,15.6270179 10.0597508,15.5400254 10.2175403,15.3816329 C10.2175403,15.3816329 10.8960946,14.6598854 11.1840759,14.3095079 C11.4732564,13.9585303 11.4618571,13.6591528 11.4564571,13.5175603 C11.4540571,13.4197678 11.1822759,8.97706771 11.0808826,7.24138016 L14.1724749,4.14379008 C15.2680015,3.04586505 15.0940135,1.72175502 14.6866405,1.31437751 C14.5060525,1.1343925 14.1418772,0.997 13.6979072,0.997 L13.6979072,0.997 L13.6979072,0.997 L13.6979072,0.997 Z" id="Shape"></path>
                </g>
            </g>
        </g>
    </g>
</svg>