<?xml version="1.0" encoding="UTF-8" standalone="no"?>
<svg width="22px" height="15px" viewBox="0 0 22 15" version="1.1" xmlns="http://www.w3.org/2000/svg" xmlns:xlink="http://www.w3.org/1999/xlink">
    <!-- Generator: Sketch 39.1 (31720) - http://www.bohemiancoding.com/sketch -->
    <title>Shape</title>
    <desc>Created with Sketch.</desc>
    <defs></defs>
    <g id="Pax" stroke="none" stroke-width="1" fill="none" fill-rule="evenodd">
        <g id="passangers-1_color_detail_path_1" transform="translate(-88.000000, -413.000000)" fill="#D2B376">
            <g id="Content" transform="translate(23.000000, 229.000000)">
                <g id="Main" transform="translate(0.000000, 63.000000)">
                    <g id="passanger-1">
                        <g id="Group-8" transform="translate(40.000000, 99.000000)">
                            <path d="M46.12,30.80352 L46.12,30.80352 L46.12,30.80792 L46.7976,30.80792 C46.9164,31.22856 47,31.6624 47,32.11912 C47,34.79432 44.83344,36.96176 42.16,36.96176 C40.28472,36.96176 38.67696,35.88376 37.87352,34.32352 L34.12648,34.32352 C33.32216,35.88376 31.71528,36.96176 29.84,36.96176 C27.16656,36.96176 25,34.79432 25,32.11912 C25,31.97128 25.02024,31.82784 25.03696,31.6844 L25,31.6844 L25.04488,31.58672 C25.08096,31.32184 25.13112,31.06136 25.2024,30.80792 L25.4048,30.80792 L29.4,22.18392 L29.4,22.00264 L29.4836,22.00264 L29.48448,22 L29.49064,22.00264 L32.92,22.00264 L32.92,22.89144 L30.04504,22.89144 L26.93776,29.45096 C26.58048,29.8364 26.3068,30.29576 26.12376,30.79824 L46.11736,30.79824 L41.98048,22.89144 L39.08,22.89144 L39.08,22.00264 L42.50848,22.00264 L42.51464,22 L42.5164,22.00264 L42.6,22.00264 L42.6,22.16632 L47,30.80352 L46.12,30.80352 L46.12,30.80352 Z M42.16,36.06768 C44.3468,36.06768 46.12,34.29976 46.12,32.11912 C46.12,31.97128 46.09624,31.8296 46.07776,31.68616 L38.24224,31.68616 C38.22376,31.8296 38.2,31.97128 38.2,32.11912 C38.2,34.29976 39.9732,36.06768 42.16,36.06768 L42.16,36.06768 Z M37.52328,33.4356 C37.4036,33.01408 37.32,32.57848 37.32,32.11912 C37.32,31.97128 37.34024,31.8296 37.35696,31.68616 L34.64392,31.68616 C34.65976,31.8296 34.68088,31.97128 34.68088,32.11912 C34.68088,32.57848 34.5964,33.01496 34.47672,33.4356 L37.52328,33.4356 L37.52328,33.4356 Z M25.88,32.11912 C25.88,34.29976 27.6532,36.06768 29.84,36.06768 C32.0268,36.06768 33.8,34.29976 33.8,32.11912 C33.8,31.97128 33.77624,31.8296 33.75776,31.68616 L25.92224,31.68616 C25.90552,31.83048 25.88,31.97128 25.88,32.11912 L25.88,32.11912 Z" id="Shape"></path>
                        </g>
                    </g>
                </g>
            </g>
        </g>
    </g>
</svg>