<?xml version="1.0" encoding="UTF-8" standalone="no"?>
<svg width="14px" height="16px" viewBox="0 0 14 16" version="1.1" xmlns="http://www.w3.org/2000/svg" xmlns:xlink="http://www.w3.org/1999/xlink">
    <!-- Generator: Sketch 3.8.3 (29802) - http://www.bohemiancoding.com/sketch -->
    <title>Shape</title>
    <desc>Created with Sketch.</desc>
    <defs></defs>
    <g id="Page-1" stroke="none" stroke-width="1" fill="none" fill-rule="evenodd">
        <g id="icon-passenger-mobile-search" transform="translate(-1.000000, -1.000000)" fill="#FFFFFF">
            <g id="Page-1">
                <g id="25px">
                    <path d="M14.5678793,16.5355508 C14.5678793,16.5355508 13.983331,16.9000201 7.97247054,16.9000201 C1.96161006,16.9000201 1.3986882,16.5355508 1.3986882,16.5355508 C0.6424011,15.4421501 1.02340697,13.6223524 1.78033014,12.8934138 C2.16006387,12.5283109 5.05354583,11.6568937 6.21628161,11.3165956 C4.55995558,10.3529506 3.54351588,8.11462427 3.54351588,6.01559385 C3.54351588,3.24423307 4.35196072,0.997 7.99091657,0.997 C11.6298725,0.997 12.4383173,3.2435995 12.4383173,6.01559385 C12.4383173,8.03511186 11.4962977,10.1812103 9.94873971,11.198922 C10.4537792,11.3681207 13.7708837,12.485059 14.191962,12.8934138 C14.9437966,13.6223524 15.3190778,15.4421501 14.5678793,16.5355508 L14.5678793,16.5355508 L14.5678793,16.5355508 Z M9.77572871,11.8114615 L9.64597047,11.8114615 L9.50031041,11.090796 L9.50031041,10.7473154 C10.952458,9.88480497 11.8156049,7.84747347 11.8156049,6.00350455 C11.8156049,3.58771372 11.1782628,1.6292537 7.9902805,1.6292537 C4.80357031,1.6292537 4.16559224,3.58771372 4.16559224,6.00350455 C4.16559224,8.1031759 5.28316703,10.4566342 7.11759263,11.0354548 L7.11759263,11.090796 L6.97193264,11.8114615 L6.79065266,11.8114615 C4.82964918,12.369927 2.5417058,13.1160382 2.20140841,13.3685581 C1.72181171,13.832254 1.38787501,15.1368307 1.81404184,15.9917088 C2.24402509,16.0750374 3.69172017,16.2639503 7.97247054,16.2639503 C12.2576735,16.2639503 13.7155456,16.0750374 14.1512535,15.9910753 C14.5736039,15.1336555 14.2434837,13.8284379 13.7498934,13.3507519 C13.4592094,13.1211288 11.4772156,12.3782002 9.77572871,11.8114615 L9.77572871,11.8114615 L9.77572871,11.8114615 Z" id="Shape"></path>
                </g>
            </g>
        </g>
    </g>
</svg>