<?xml version="1.0" encoding="utf-8"?>
<!-- Generator: Adobe Illustrator 22.0.1, SVG Export Plug-In . SVG Version: 6.00 Build 0)  -->
<svg version="1.1" id="Capa_1" xmlns="http://www.w3.org/2000/svg" xmlns:xlink="http://www.w3.org/1999/xlink" x="0px" y="0px"
	 viewBox="0 0 39.3 32.3" style="enable-background:new 0 0 39.3 32.3;" xml:space="preserve">
<style type="text/css">
	.st0{fill:none;}
	.st1{fill:none;stroke:#000000;stroke-miterlimit:10;}
	.st2{fill:#092A5B;}
	.st3{fill:#EB9600;}
</style>
<g>
	<g>
		<path class="st0" d="M938,1051.9"/>
		<line class="st1" x1="125.8" y1="667.2" x2="118.6" y2="671.7"/>
	</g>
</g>
<path class="st2" d="M12.8,6l3.1,6c0,0,0,0.1,0.1,0.1c0.1,0.1,0.3,0.2,0.5,0.1c0.2-0.1,0.3-0.4,0.2-0.6l-3-5.9l0.8-0.1
	c0.1,0,0.3,0.1,0.4,0.1l6.4,5.8c0.2,0.2,0.5,0.2,0.6,0c0.2-0.2,0.2-0.5,0-0.6l-6.4-5.8c-0.3-0.3-0.7-0.4-1.1-0.4l-1,0.1
	c-0.3,0-0.5,0.2-0.6,0.4C12.7,5.5,12.7,5.8,12.8,6z"/>
<path class="st2" d="M22.1,26.8l2.9-9.1l5.9-0.8c1.8-0.2,3.2-1.2,3.2-2.1c0-0.1,0-0.2,0-0.4c-0.1-0.2-0.2-0.5-0.5-0.8
	c-0.9-1-3.2-2.2-4.6-2.1l-13,1.6c-0.4,0-2.8,0.4-4.8,0.8l-3.4-2.7C7.5,11,7,10.8,6.7,10.9l-1,0.1c-0.3,0-0.5,0.2-0.6,0.4
	s-0.1,0.5,0,0.7l1.4,3.1c-0.2,0.1-0.4,0.2-0.4,0.4C6,16,6.2,16.5,6.6,17C6.9,17.1,7,17.1,7,17.1c2.1,1.7,7.1,1.8,7.9,1.7l2.3-0.3
	c0.4,0,0.7,0.1,0.9,0.3c0.1,0.1,0.1,0.2,0.2,0.2l1.2,7.8c0.1,0.5,0.5,0.8,1,0.8l1-0.1C21.6,27.6,22,27.2,22.1,26.8z M21.1,26.7
	l-1,0.1L19,18.9v-0.1c-0.1-0.1-0.6-1.2-1.9-1.1L14.8,18c-0.8,0.2-5.4,0-7.3-1.5c0,0-0.1,0-0.1-0.1c-0.1-0.2-0.2-0.3-0.3-0.4
	c0.1,0,0.1,0,0.2,0l0.6-0.1L6,12l0.8-0.1c0.1,0,0.4,0.1,0.5,0.1l3.7,2.9h0.2c2-0.4,4.6-0.8,4.9-0.8L29,12.5c1-0.1,3,1,3.9,1.8
	c0.2,0.2,0.3,0.4,0.3,0.4v0.1V15c0,0.4-1,1.2-2.4,1.4l-6.4,0.9l-3,9.6C21.3,26.6,21.2,26.7,21.1,26.7z"/>
<path class="st3" d="M29.1,14.4c0,0.1,0.1,0.2,0.2,0.3l0.1,0.1c0.5,0.3,1.6,0.1,2.3,0c0.2-0.1,0.4-0.3,0.3-0.5
	c-0.1-0.2-0.3-0.4-0.5-0.3c-0.7,0.2-1.5,0.2-1.6,0.2c-0.1-0.1-0.3-0.2-0.5-0.2S29,14.2,29.1,14.4z"/>
</svg>
