<?xml version="1.0" encoding="UTF-8" standalone="no"?>
<svg width="13px" height="13px" viewBox="0 0 13 13" version="1.1" xmlns="http://www.w3.org/2000/svg" xmlns:xlink="http://www.w3.org/1999/xlink">
    <!-- Generator: Sketch 39.1 (31720) - http://www.bohemiancoding.com/sketch -->
    <title>Combined Shape</title>
    <desc>Created with Sketch.</desc>
    <defs></defs>
    <g id="Pax" stroke="none" stroke-width="1" fill="none" fill-rule="evenodd">
        <g id="passangers-1_color_detail_path_1" transform="translate(-515.000000, -116.000000)" fill="#428BCA">
            <g id="Path" transform="translate(0.000000, 70.000000)">
                <g id="step-1" transform="translate(486.000000, 35.000000)">
                    <g id="circle-done" transform="translate(18.000000, 0.000000)">
                        <path d="M16.3090213,18.6611179 L14.3259805,16.6780771 C13.5646291,15.9167257 12.3296908,15.9132771 11.570131,16.6728369 C10.8052757,17.4376922 10.8129174,18.6662325 11.5753712,19.4286864 L15.0348459,22.888161 C15.2434165,23.0967316 15.4875286,23.2484235 15.7476723,23.3431318 C15.772852,23.3592512 15.7985226,23.3748718 15.8246786,23.389973 C16.7614312,23.9308073 17.9449649,23.6074783 18.4826612,22.676161 L23.5373987,13.921099 C24.0729833,12.9934392 23.7568536,11.7994024 22.8265867,11.2623125 C21.8898341,10.7214782 20.7063004,11.0448072 20.1686041,11.9761245 L16.3090213,18.6611179 Z" id="Combined-Shape"></path>
                    </g>
                </g>
            </g>
        </g>
    </g>
</svg>