<?xml version="1.0" encoding="UTF-8" standalone="no"?>
<svg width="133px" height="39px" viewBox="0 0 133 39" version="1.1" xmlns="http://www.w3.org/2000/svg" xmlns:xlink="http://www.w3.org/1999/xlink">
    <!-- Generator: Sketch 39.1 (31720) - http://www.bohemiancoding.com/sketch -->
    <title>logo</title>
    <desc>Created with Sketch.</desc>
    <defs></defs>
    <g id="Pax" stroke="none" stroke-width="1" fill="none" fill-rule="evenodd">
        <g id="passangers-1_color_detail_path_1" transform="translate(-38.000000, -16.000000)" fill="#FFFFFF">
            <g id="Header">
                <g id="logo" transform="translate(38.000000, 16.000000)">
                    <g id="icon-travel-footer">
                        <g id="Group">
                            <g transform="translate(7.132530, 28.277108)" id="Shape">
                                <path d="M1.12066265,2.14048193 C1.48012048,2.06403614 2.04289157,2.00873494 2.6186747,2.00873494 C3.44006024,2.00873494 3.96542169,2.15024096 4.36228916,2.47066265 C4.69246988,2.71463855 4.89090361,3.09198795 4.89090361,3.5913253 C4.89090361,4.20289157 4.48590361,4.73963855 3.81578313,4.98524096 L3.81578313,5.00475904 C4.41921687,5.15439759 5.12512048,5.65373494 5.12512048,6.59710843 C5.12512048,7.14361446 4.90879518,7.55837349 4.58837349,7.86903614 C4.14433735,8.27403614 3.4286747,8.46108434 2.39259036,8.46108434 C1.82656627,8.46108434 1.39391566,8.4236747 1.12066265,8.38626506 L1.12066265,2.14048193 L1.12066265,2.14048193 Z M1.94042169,4.74126506 L2.68536145,4.74126506 C3.55228916,4.74126506 4.05975904,4.28909639 4.05975904,3.67753012 C4.05975904,2.93259036 3.49373494,2.64144578 2.66584337,2.64144578 C2.28849398,2.64144578 2.07216867,2.66909639 1.94042169,2.69837349 L1.94042169,4.74126506 L1.94042169,4.74126506 Z M1.94042169,7.78445783 C2.10144578,7.81210843 2.33728916,7.82186747 2.62843373,7.82186747 C3.47584337,7.82186747 4.25819277,7.51120482 4.25819277,6.5873494 C4.25819277,5.72042169 3.51325301,5.36259036 2.61704819,5.36259036 L1.93879518,5.36259036 L1.93879518,7.78445783 L1.94042169,7.78445783 Z"></path>
                                <path d="M6.50927711,6.27668675 C6.52879518,7.3973494 7.24445783,7.85927711 8.0739759,7.85927711 C8.6676506,7.85927711 9.02548193,7.75518072 9.33614458,7.62343373 L9.4776506,8.21710843 C9.18487952,8.34885542 8.68554217,8.50012048 7.96012048,8.50012048 C6.55807229,8.50012048 5.71879518,7.57626506 5.71879518,6.20024096 C5.71879518,4.82584337 6.52879518,3.74096386 7.8560241,3.74096386 C9.34427711,3.74096386 9.73951807,5.0503012 9.73951807,5.88957831 C9.73951807,6.06036145 9.72,6.19210843 9.71186747,6.27668675 L6.50927711,6.27668675 L6.50927711,6.27668675 Z M8.93927711,5.68301205 C8.94903614,5.15439759 8.72295181,4.33626506 7.79096386,4.33626506 C6.95168675,4.33626506 6.58572289,5.10885542 6.51903614,5.68301205 L8.93927711,5.68301205 L8.93927711,5.68301205 Z"></path>
                                <path d="M10.5787952,5.07957831 C10.5787952,4.60789157 10.5706627,4.22240964 10.5413855,3.84506024 L11.2765663,3.84506024 L11.3253614,4.59975904 L11.343253,4.59975904 C11.5709639,4.16710843 12.0979518,3.74259036 12.8526506,3.74259036 C13.4821084,3.74259036 14.4628916,4.11993976 14.4628916,5.68301205 L14.4628916,8.40578313 L13.635,8.40578313 L13.635,5.7773494 C13.635,5.04216867 13.3601205,4.43060241 12.5793976,4.43060241 C12.0345181,4.43060241 11.6083735,4.81608434 11.468494,5.27801205 C11.4310843,5.38210843 11.4115663,5.52198795 11.4115663,5.66512048 L11.4115663,8.40578313 L10.5820482,8.40578313 L10.5820482,5.07957831 L10.5787952,5.07957831 Z"></path>
                                <path d="M16.0812651,6.27668675 C16.1007831,7.3973494 16.8164458,7.85927711 17.6443373,7.85927711 C18.2396386,7.85927711 18.5958434,7.75518072 18.9081325,7.62343373 L19.048012,8.21710843 C18.7568675,8.34885542 18.2575301,8.50012048 17.5321084,8.50012048 C16.1284337,8.50012048 15.2891566,7.57626506 15.2891566,6.20024096 C15.2891566,4.82584337 16.0991566,3.74096386 17.428012,3.74096386 C18.9162651,3.74096386 19.311506,5.0503012 19.311506,5.88957831 C19.311506,6.06036145 19.291988,6.19210843 19.2838554,6.27668675 L16.0812651,6.27668675 L16.0812651,6.27668675 Z M18.5112651,5.68301205 C18.5193976,5.15439759 18.2933133,4.33626506 17.3629518,4.33626506 C16.5236747,4.33626506 16.1577108,5.10885542 16.0893976,5.68301205 L18.5112651,5.68301205 L18.5112651,5.68301205 Z"></path>
                                <path d="M20.2337349,8.40578313 L20.2337349,4.47614458 L19.5928916,4.47614458 L19.5928916,3.84506024 L20.2337349,3.84506024 L20.2337349,3.59945783 C20.2337349,2.39421687 20.9412651,1.61186747 22.2229518,1.61186747 C22.6474699,1.61186747 23.1468072,1.74361446 23.3826506,1.91439759 L23.1484337,2.54548193 C22.95,2.4039759 22.5921687,2.28198795 22.1855422,2.28198795 C21.3088554,2.28198795 21.0551205,2.89518072 21.0551205,3.62060241 L21.0551205,3.84668675 L23.7030723,3.84668675 L23.7030723,8.40740964 L22.8816867,8.40740964 L22.8816867,4.47777108 L21.0551205,4.47777108 L21.0551205,8.40740964 L20.2337349,8.40740964 L20.2337349,8.40578313 Z"></path>
                                <path d="M28.1401807,8.23662651 C27.9222289,8.34885542 27.4424096,8.50012048 26.8292169,8.50012048 C25.4548193,8.50012048 24.5586145,7.56650602 24.5586145,6.17259036 C24.5586145,4.76891566 25.5198795,3.75072289 27.0081325,3.75072289 C27.4977108,3.75072289 27.9303614,3.87271084 28.1580723,3.98656627 L27.9677711,4.62740964 C27.7709639,4.51355422 27.4586747,4.41108434 27.006506,4.41108434 C25.9606627,4.41108434 25.3946386,5.1836747 25.3946386,6.13518072 C25.3946386,7.19078313 26.0745181,7.83975904 26.9788554,7.83975904 C27.4505422,7.83975904 27.7612048,7.71777108 27.9970482,7.6136747 L28.1401807,8.23662651 L28.1401807,8.23662651 Z"></path>
                                <path d="M29.8431325,2.56337349 C29.8528916,2.84638554 29.6463253,3.07246988 29.3145181,3.07246988 C29.0233735,3.07246988 28.8151807,2.84638554 28.8151807,2.56337349 C28.8151807,2.27222892 29.0331325,2.04614458 29.3324096,2.04614458 C29.6463253,2.04614458 29.8431325,2.27222892 29.8431325,2.56337349 L29.8431325,2.56337349 Z M28.9209036,8.40578313 L28.9209036,3.84506024 L29.7504217,3.84506024 L29.7504217,8.40578313 L28.9209036,8.40578313 L28.9209036,8.40578313 Z"></path>
                                <path d="M35.0642169,6.08801205 C35.0642169,7.7746988 33.8963855,8.50987952 32.7936145,8.50987952 C31.5590964,8.50987952 30.6075904,7.60554217 30.6075904,6.16445783 C30.6075904,4.63716867 31.6046386,3.74259036 32.8684337,3.74259036 C34.1777711,3.74259036 35.0642169,4.69409639 35.0642169,6.08801205 L35.0642169,6.08801205 Z M31.445241,6.13518072 C31.445241,7.13385542 32.0193976,7.88692771 32.8293976,7.88692771 C33.621506,7.88692771 34.2151807,7.14198795 34.2151807,6.11566265 C34.2151807,5.34307229 33.8296988,4.36228916 32.8489157,4.36228916 C31.8681325,4.36391566 31.445241,5.26825301 31.445241,6.13518072 L31.445241,6.13518072 Z"></path>
                                <path d="M35.8075301,7.55837349 C36.0531325,7.71939759 36.4857831,7.88855422 36.9005422,7.88855422 C37.5023494,7.88855422 37.7853614,7.5876506 37.7853614,7.2103012 C37.7853614,6.81506024 37.5495181,6.59710843 36.9363253,6.3710241 C36.1165663,6.07825301 35.7310843,5.62608434 35.7310843,5.07957831 C35.7310843,4.34439759 36.324759,3.74096386 37.3039157,3.74096386 C37.7658434,3.74096386 38.1708434,3.87271084 38.4245783,4.0239759 L38.218012,4.62740964 C38.0390964,4.51355422 37.7089157,4.36391566 37.2843976,4.36391566 C36.7948193,4.36391566 36.5215663,4.64692771 36.5215663,4.98524096 C36.5215663,5.36259036 36.7948193,5.53174699 37.388494,5.75783133 C38.1806024,6.06036145 38.5856024,6.45560241 38.5856024,7.13385542 C38.5856024,7.93409639 37.9626506,8.50012048 36.8793976,8.50012048 C36.3800602,8.50012048 35.9181325,8.37650602 35.5993373,8.18945783 L35.8075301,7.55837349 L35.8075301,7.55837349 Z"></path>
                                <polygon points="42.1183735 2.7536747 40.1877108 2.7536747 40.1877108 2.05590361 44.8883133 2.05590361 44.8883133 2.7536747 42.9478916 2.7536747 42.9478916 8.40578313 42.1183735 8.40578313 42.1183735 2.7536747"></polygon>
                                <path d="M47.3004217,8.40578313 L47.2353614,7.83162651 L47.2060843,7.83162651 C46.9523494,8.18945783 46.4627711,8.50987952 45.8121687,8.50987952 C44.8883133,8.50987952 44.418253,7.85927711 44.418253,7.20054217 C44.418253,6.09777108 45.3974096,5.49596386 47.1589157,5.50409639 L47.1589157,5.40975904 C47.1589157,5.03240964 47.0548193,4.35415663 46.1228313,4.35415663 C45.6983133,4.35415663 45.2559036,4.48590361 44.9354819,4.69409639 L44.7468072,4.14759036 C45.1225301,3.90198795 45.6690361,3.74259036 46.2448193,3.74259036 C47.6387349,3.74259036 47.9786747,4.69409639 47.9786747,5.60819277 L47.9786747,7.31439759 C47.9786747,7.70963855 47.9981928,8.09512048 48.0551205,8.40740964 L47.3004217,8.40740964 L47.3004217,8.40578313 Z M47.1784337,6.07825301 C46.2724699,6.06036145 45.2461446,6.21975904 45.2461446,7.10620482 C45.2461446,7.64295181 45.6056024,7.89831325 46.028494,7.89831325 C46.6237952,7.89831325 46.9995181,7.52096386 47.1312651,7.13548193 C47.1605422,7.05090361 47.1800602,6.95656627 47.1800602,6.87198795 L47.1800602,6.07825301 L47.1784337,6.07825301 Z"></path>
                                <path d="M49.126988,5.26825301 C49.126988,4.73150602 49.1188554,4.26795181 49.0912048,3.84506024 L49.8166265,3.84506024 L49.8459036,4.73963855 L49.8816867,4.73963855 C50.0898795,4.12644578 50.5892169,3.74096386 51.1438554,3.74096386 C51.2381928,3.74096386 51.3048795,3.75072289 51.3796988,3.76861446 L51.3796988,4.55096386 C51.2951205,4.53307229 51.2105422,4.52331325 51.0966867,4.52331325 C50.5111446,4.52331325 50.098012,4.96572289 49.9857831,5.58704819 C49.9646386,5.69927711 49.9483735,5.8326506 49.9483735,5.97415663 L49.9483735,8.40578313 L49.126988,8.40578313 L49.126988,5.26825301 L49.126988,5.26825301 Z"></path>
                                <path d="M50.908012,9.72487952 C51.2837349,9.69560241 51.6139157,9.59313253 51.8123494,9.37518072 C52.0384337,9.11168675 52.123012,8.75385542 52.123012,7.66084337 L52.123012,3.84506024 L52.9525301,3.84506024 L52.9525301,7.98126506 C52.9525301,8.86771084 52.8110241,9.44186747 52.4060241,9.85662651 C52.0384337,10.2242169 51.435,10.3738554 50.9925904,10.3738554 L50.908012,9.72487952 L50.908012,9.72487952 Z M53.0468675,2.56337349 C53.0566265,2.83825301 52.8581928,3.07246988 52.5296386,3.07246988 C52.2189759,3.07246988 52.0205422,2.83662651 52.0205422,2.56337349 C52.0205422,2.27222892 52.2368675,2.04614458 52.5491566,2.04614458 C52.8500602,2.04614458 53.0468675,2.27222892 53.0468675,2.56337349 L53.0468675,2.56337349 Z"></path>
                                <path d="M54.5822892,6.27668675 C54.6018072,7.3973494 55.3174699,7.85927711 56.146988,7.85927711 C56.7406627,7.85927711 57.098494,7.75518072 57.4091566,7.62343373 L57.5506627,8.21710843 C57.2578916,8.34885542 56.7585542,8.50012048 56.0331325,8.50012048 C54.6310843,8.50012048 53.7918072,7.57626506 53.7918072,6.20024096 C53.7918072,4.82584337 54.6018072,3.74096386 55.9290361,3.74096386 C57.4172892,3.74096386 57.8125301,5.0503012 57.8125301,5.88957831 C57.8125301,6.06036145 57.793012,6.19210843 57.7848795,6.27668675 L54.5822892,6.27668675 L54.5822892,6.27668675 Z M57.0122892,5.68301205 C57.0220482,5.15439759 56.7959639,4.33626506 55.8639759,4.33626506 C55.0263253,4.33626506 54.6587349,5.10885542 54.5920482,5.68301205 L57.0122892,5.68301205 L57.0122892,5.68301205 Z"></path>
                                <path d="M59.6504819,2.53572289 L59.6504819,3.84506024 L60.8378313,3.84506024 L60.8378313,4.47614458 L59.6504819,4.47614458 L59.6504819,6.93542169 C59.6504819,7.50144578 59.8098795,7.82186747 60.2718072,7.82186747 C60.489759,7.82186747 60.6475301,7.79421687 60.753253,7.76493976 L60.7906627,8.38626506 C60.6296386,8.4513253 60.3742771,8.49849398 60.0554819,8.49849398 C59.6683735,8.49849398 59.3577108,8.37487952 59.1609036,8.15042169 C58.9250602,7.90481928 58.8404819,7.49981928 58.8404819,6.96307229 L58.8404819,4.47614458 L58.1329518,4.47614458 L58.1329518,3.84506024 L58.8404819,3.84506024 L58.8404819,2.75204819 L59.6504819,2.53572289 L59.6504819,2.53572289 Z"></path>
                                <path d="M64.1071084,8.40578313 L64.0420482,7.83162651 L64.0127711,7.83162651 C63.7590361,8.18945783 63.2694578,8.50987952 62.6188554,8.50987952 C61.6966265,8.50987952 61.2249398,7.85927711 61.2249398,7.20054217 C61.2249398,6.09777108 62.2040964,5.49596386 63.9656024,5.50409639 L63.9656024,5.40975904 C63.9656024,5.03240964 63.861506,4.35415663 62.9295181,4.35415663 C62.505,4.35415663 62.0625904,4.48590361 61.7421687,4.69409639 L61.553494,4.14759036 C61.9292169,3.90198795 62.4773494,3.74259036 63.051506,3.74259036 C64.4454217,3.74259036 64.7853614,4.69409639 64.7853614,5.60819277 L64.7853614,7.31439759 C64.7853614,7.70963855 64.8048795,8.09512048 64.8618072,8.40740964 L64.1071084,8.40740964 L64.1071084,8.40578313 Z M63.983494,6.07825301 C63.0775301,6.06036145 62.0512048,6.21975904 62.0512048,7.10620482 C62.0512048,7.64295181 62.4106627,7.89831325 62.8335542,7.89831325 C63.4288554,7.89831325 63.8045783,7.52096386 63.9363253,7.13548193 C63.9656024,7.05090361 63.9851205,6.95656627 63.9851205,6.87198795 L63.9851205,6.07825301 L63.983494,6.07825301 Z"></path>
                                <path d="M65.8198193,7.55837349 C66.0654217,7.71939759 66.4996988,7.88855422 66.9128313,7.88855422 C67.5162651,7.88855422 67.7976506,7.5876506 67.7976506,7.2103012 C67.7976506,6.81506024 67.5634337,6.59710843 66.950241,6.3710241 C66.1304819,6.07825301 65.745,5.62608434 65.745,5.07957831 C65.745,4.34439759 66.3386747,3.74096386 67.3178313,3.74096386 C67.779759,3.74096386 68.184759,3.87271084 68.438494,4.0239759 L68.2319277,4.62740964 C68.053012,4.51355422 67.7228313,4.36391566 67.2983133,4.36391566 C66.8087349,4.36391566 66.5338554,4.64692771 66.5338554,4.98524096 C66.5338554,5.36259036 66.8087349,5.53174699 67.4007831,5.75783133 C68.1912651,6.06036145 68.5978916,6.45560241 68.5978916,7.13385542 C68.5978916,7.93409639 67.9749398,8.50012048 66.8916867,8.50012048 C66.3923494,8.50012048 65.9304217,8.37650602 65.61,8.18945783 L65.8198193,7.55837349 L65.8198193,7.55837349 Z"></path>
                                <path d="M71.3109036,2.14048193 C71.6703614,2.06403614 72.234759,2.00873494 72.8105422,2.00873494 C73.6303012,2.00873494 74.1572892,2.15024096 74.5525301,2.47066265 C74.8843373,2.71463855 75.0811446,3.09198795 75.0811446,3.5913253 C75.0811446,4.20289157 74.6777711,4.73963855 74.0076506,4.98524096 L74.0076506,5.00475904 C74.6094578,5.15439759 75.316988,5.65373494 75.316988,6.59710843 C75.316988,7.14361446 75.0990361,7.55837349 74.780241,7.86903614 C74.3362048,8.27403614 73.6205422,8.46108434 72.5844578,8.46108434 C72.0184337,8.46108434 71.5857831,8.4236747 71.3109036,8.38626506 L71.3109036,2.14048193 L71.3109036,2.14048193 Z M72.1322892,4.74126506 L72.8756024,4.74126506 C73.7425301,4.74126506 74.25,4.28909639 74.25,3.67753012 C74.25,2.93259036 73.6856024,2.64144578 72.8560843,2.64144578 C72.4803614,2.64144578 72.2624096,2.66909639 72.1306627,2.69837349 L72.1306627,4.74126506 L72.1322892,4.74126506 Z M72.1322892,7.78445783 C72.2933133,7.81210843 72.5275301,7.82186747 72.8203012,7.82186747 C73.6677108,7.82186747 74.4484337,7.51120482 74.4484337,6.5873494 C74.4484337,5.72042169 73.7051205,5.36259036 72.8089157,5.36259036 L72.1306627,5.36259036 L72.1306627,7.78445783 L72.1322892,7.78445783 Z"></path>
                                <path d="M78.7261446,8.40578313 L78.6610843,7.83162651 L78.6334337,7.83162651 C78.3780723,8.18945783 77.888494,8.50987952 77.2378916,8.50987952 C76.3156627,8.50987952 75.8439759,7.85927711 75.8439759,7.20054217 C75.8439759,6.09777108 76.8231325,5.49596386 78.5846386,5.50409639 L78.5846386,5.40975904 C78.5846386,5.03240964 78.4805422,4.35415663 77.5485542,4.35415663 C77.1240361,4.35415663 76.6816265,4.48590361 76.3595783,4.69409639 L76.1709036,4.14759036 C76.548253,3.90198795 77.0931325,3.74259036 77.6689157,3.74259036 C79.0644578,3.74259036 79.4027711,4.69409639 79.4027711,5.60819277 L79.4027711,7.31439759 C79.4027711,7.70963855 79.4222892,8.09512048 79.4792169,8.40740964 L78.7261446,8.40740964 L78.7261446,8.40578313 Z M78.6041566,6.07825301 C77.6998193,6.06036145 76.6718675,6.21975904 76.6718675,7.10620482 C76.6718675,7.64295181 77.0313253,7.89831325 77.4542169,7.89831325 C78.0478916,7.89831325 78.4236145,7.52096386 78.556988,7.13548193 C78.5846386,7.05090361 78.6041566,6.95656627 78.6041566,6.87198795 L78.6041566,6.07825301 L78.6041566,6.07825301 Z"></path>
                                <path d="M80.5543373,5.07957831 C80.5543373,4.60789157 80.5445783,4.22240964 80.5169277,3.84506024 L81.2521084,3.84506024 L81.3009036,4.59975904 L81.3187952,4.59975904 C81.5448795,4.16710843 82.073494,3.74259036 82.8265663,3.74259036 C83.4576506,3.74259036 84.4384337,4.11993976 84.4384337,5.68301205 L84.4384337,8.40578313 L83.6105422,8.40578313 L83.6105422,5.7773494 C83.6105422,5.04216867 83.3356627,4.43060241 82.5549398,4.43060241 C82.0084337,4.43060241 81.5839157,4.81608434 81.4424096,5.27801205 C81.4066265,5.38210843 81.3871084,5.52198795 81.3871084,5.66512048 L81.3871084,8.40578313 L80.5575904,8.40578313 L80.5575904,5.07957831 L80.5543373,5.07957831 Z"></path>
                                <path d="M88.8446386,8.23662651 C88.6266867,8.34885542 88.1468675,8.50012048 87.5336747,8.50012048 C86.1592771,8.50012048 85.2630723,7.56650602 85.2630723,6.17259036 C85.2630723,4.76891566 86.2243373,3.75072289 87.7125904,3.75072289 C88.2021687,3.75072289 88.6348193,3.87271084 88.8625301,3.98656627 L88.6722289,4.62740964 C88.4754217,4.51355422 88.1631325,4.41108434 87.7109639,4.41108434 C86.6651205,4.41108434 86.0990964,5.1836747 86.0990964,6.13518072 C86.0990964,7.19078313 86.7789759,7.83975904 87.6833133,7.83975904 C88.155,7.83975904 88.4656627,7.71777108 88.701506,7.6136747 L88.8446386,8.23662651 L88.8446386,8.23662651 Z"></path>
                                <path d="M93.696506,6.08801205 C93.696506,7.7746988 92.5270482,8.50987952 91.4242771,8.50987952 C90.1913855,8.50987952 89.238253,7.60554217 89.238253,6.16445783 C89.238253,4.63716867 90.2369277,3.74259036 91.5007229,3.74259036 C92.8100602,3.74259036 93.696506,4.69409639 93.696506,6.08801205 L93.696506,6.08801205 Z M90.0791566,6.13518072 C90.0791566,7.13385542 90.6533133,7.88692771 91.4633133,7.88692771 C92.2554217,7.88692771 92.8490964,7.14198795 92.8490964,6.11566265 C92.8490964,5.34307229 92.461988,4.36228916 91.4828313,4.36228916 C90.5020482,4.36391566 90.0791566,5.26825301 90.0791566,6.13518072 L90.0791566,6.13518072 Z"></path>
                                <path d="M100.30012,1.71596386 L100.30012,7.22819277 C100.30012,7.63319277 100.30988,8.09512048 100.33753,8.40578313 L99.5942169,8.40578313 L99.5568072,7.6153012 L99.5372892,7.6153012 C99.2835542,8.12277108 98.7272892,8.50987952 97.9823494,8.50987952 C96.8795783,8.50987952 96.0305422,7.57789157 96.0305422,6.19210843 C96.0224096,4.67620482 96.9641566,3.74259036 98.0766867,3.74259036 C98.7728313,3.74259036 99.2445181,4.07277108 99.4510843,4.44036145 L99.4706024,4.44036145 L99.4706024,1.71759036 L100.30012,1.71759036 L100.30012,1.71596386 Z M99.4706024,5.70090361 C99.4706024,5.59680723 99.4608434,5.4553012 99.4331928,5.35283133 C99.3112048,4.82584337 98.8590361,4.39156627 98.2360843,4.39156627 C97.3789157,4.39156627 96.8698193,5.14626506 96.8698193,6.15307229 C96.8698193,7.07692771 97.3236145,7.83975904 98.2165663,7.83975904 C98.7728313,7.83975904 99.2819277,7.47216867 99.4331928,6.85084337 C99.4608434,6.73861446 99.4706024,6.62475904 99.4706024,6.49301205 L99.4706024,5.70090361 L99.4706024,5.70090361 Z"></path>
                                <path d="M101.949398,6.27668675 C101.968916,7.3973494 102.684578,7.85927711 103.51247,7.85927711 C104.106145,7.85927711 104.463976,7.75518072 104.774639,7.62343373 L104.916145,8.21710843 C104.625,8.34885542 104.124036,8.50012048 103.400241,8.50012048 C101.996566,8.50012048 101.157289,7.57626506 101.157289,6.20024096 C101.157289,4.82584337 101.967289,3.74096386 103.294518,3.74096386 C104.782771,3.74096386 105.179639,5.0503012 105.179639,5.88957831 C105.179639,6.06036145 105.16012,6.19210843 105.150361,6.27668675 L101.949398,6.27668675 L101.949398,6.27668675 Z M104.379398,5.68301205 C104.38753,5.15439759 104.161446,4.33626506 103.229458,4.33626506 C102.391807,4.33626506 102.024217,5.10885542 101.95753,5.68301205 L104.379398,5.68301205 L104.379398,5.68301205 Z"></path>
                                <path d="M112.293976,8.19921687 C111.991446,8.35048193 111.388012,8.50174699 110.617048,8.50174699 C108.826265,8.50174699 107.479518,7.3713253 107.479518,5.28777108 C107.479518,3.30018072 108.826265,1.95343373 110.795964,1.95343373 C111.588072,1.95343373 112.08741,2.12259036 112.303735,2.23644578 L112.105301,2.90493976 C111.794639,2.7553012 111.352229,2.64144578 110.825241,2.64144578 C109.336988,2.64144578 108.346446,3.59295181 108.346446,5.26174699 C108.346446,6.81668675 109.241024,7.81536145 110.787831,7.81536145 C111.287169,7.81536145 111.796265,7.71126506 112.124819,7.55186747 L112.293976,8.19921687 L112.293976,8.19921687 Z"></path>
                                <path d="M113.100723,1.71596386 L113.930241,1.71596386 L113.930241,4.5623494 L113.949759,4.5623494 C114.083133,4.32650602 114.289699,4.11831325 114.543434,3.97680723 C114.789036,3.8353012 115.080181,3.74096386 115.39247,3.74096386 C116.005663,3.74096386 116.983193,4.11831325 116.983193,5.69277108 L116.983193,8.40578313 L116.155301,8.40578313 L116.155301,5.78548193 C116.155301,5.0503012 115.880422,4.4289759 115.099699,4.4289759 C114.562952,4.4289759 114.138434,4.8063253 113.988795,5.25849398 C113.94,5.37072289 113.931867,5.49433735 113.931867,5.65373494 L113.931867,8.40578313 L113.102349,8.40578313 L113.102349,1.71596386 L113.100723,1.71596386 Z"></path>
                                <path d="M119.063494,2.56337349 C119.073253,2.84638554 118.866687,3.07246988 118.536506,3.07246988 C118.243735,3.07246988 118.035542,2.84638554 118.035542,2.56337349 C118.035542,2.27222892 118.253494,2.04614458 118.554398,2.04614458 C118.866687,2.04614458 119.063494,2.27222892 119.063494,2.56337349 L119.063494,2.56337349 Z M118.141265,8.40578313 L118.141265,3.84506024 L118.970783,3.84506024 L118.970783,8.40578313 L118.141265,8.40578313 L118.141265,8.40578313 Z"></path>
                                <polygon points="120.156506 1.71596386 120.986024 1.71596386 120.986024 8.40578313 120.156506 8.40578313"></polygon>
                                <path d="M122.653193,6.27668675 C122.672711,7.3973494 123.388373,7.85927711 124.217892,7.85927711 C124.80994,7.85927711 125.169398,7.75518072 125.48006,7.62343373 L125.621566,8.21710843 C125.330422,8.34885542 124.831084,8.50012048 124.105663,8.50012048 C122.701988,8.50012048 121.862711,7.57626506 121.862711,6.20024096 C121.862711,4.82584337 122.672711,3.74096386 124.001566,3.74096386 C125.489819,3.74096386 125.88506,5.0503012 125.88506,5.88957831 C125.88506,6.06036145 125.865542,6.19210843 125.85741,6.27668675 L122.653193,6.27668675 L122.653193,6.27668675 Z M125.084819,5.68301205 C125.092952,5.15439759 124.866867,4.33626506 123.936506,4.33626506 C123.098855,4.33626506 122.731265,5.10885542 122.662952,5.68301205 L125.084819,5.68301205 L125.084819,5.68301205 Z"></path>
                            </g>
                            <path d="M132.68253,24.7264458 L119.434639,24.7264458 L119.434639,0.584216867 L116.955843,0.584216867 L116.955843,26.8750602 L132.68253,26.8750602 L132.68253,24.7264458 L132.68253,24.7264458 Z M112.001506,24.7004217 L97.151506,24.7004217 L97.151506,14.4062651 L110.386386,14.4062651 L110.386386,12.243012 L97.151506,12.243012 L97.151506,2.80114458 L111.455,2.80114458 L111.455,0.584216867 L94.6466867,0.584216867 L94.6466867,26.8750602 L112.001506,26.8750602 L112.001506,24.7004217 L112.001506,24.7004217 Z M87.9910241,0.584216867 L79.4095783,24.1783133 L71.1290361,0.584216867 L68.4615663,0.584216867 L78.0823494,26.8750602 L80.668494,26.8750602 L90.4828313,0.584216867 L87.9910241,0.584216867 L87.9910241,0.584216867 Z M53.3171687,16.4328916 L58.5154819,3.19801205 L63.9626506,16.4328916 L53.3171687,16.4328916 L53.3171687,16.4328916 Z M59.8427108,0.584216867 L57.2435542,0.584216867 L46.5541566,26.8750602 L49.2492771,26.8750602 L52.5478313,18.5001807 L64.8133133,18.5001807 L68.2338554,26.8750602 L71.0395783,26.8750602 L59.8427108,0.584216867 L59.8427108,0.584216867 Z M32.6865663,2.78813253 C33.9568675,2.78813253 35.0222289,2.88409639 35.8826506,3.0760241 C36.7446988,3.26795181 37.4489759,3.60138554 37.9889759,4.0763253 C38.5322289,4.54963855 38.9258434,5.07825301 39.1665663,5.66216867 C39.4072892,6.24608434 39.5292771,6.89831325 39.5292771,7.62048193 C39.5292771,10.9678313 37.2066265,12.6431325 32.5613253,12.6431325 L25.6356627,12.6431325 L25.6356627,2.78813253 L32.6865663,2.78813253 L32.6865663,2.78813253 Z M39.3406024,19.1426506 C37.9987349,17.080241 36.391747,15.5708434 34.5228916,14.6128313 C39.6040964,14.12 42.1463253,11.7794578 42.1463253,7.58957831 C42.1463253,6.11108434 41.8307831,4.85542169 41.2013253,3.81933735 C40.5718675,2.78325301 39.6659036,1.98463855 38.4850602,1.42349398 C37.3042169,0.860722892 35.8728916,0.582590361 34.1943373,0.582590361 L23.1340964,0.582590361 L23.1340964,26.8734337 L25.6389157,26.8734337 L25.6389157,14.788494 L29.4303012,14.788494 C30.461506,14.788494 31.403253,14.9690361 32.2555422,15.3301205 C33.1078313,15.6895783 33.8495181,16.2035542 34.4789759,16.8687952 C35.1084337,17.5340361 36.1591566,19.0174096 37.6278916,21.3156627 L41.1720482,26.8718072 L44.3486145,26.8718072 L39.3406024,19.1426506 L39.3406024,19.1426506 Z M18.9068072,0.584216867 L0.293072289,0.584216867 L0.293072289,2.88246988 L8.32638554,2.88246988 L8.32638554,26.8750602 L10.8442169,26.8750602 L10.8442169,2.88246988 L18.9068072,2.88246988 L18.9068072,0.584216867 L18.9068072,0.584216867 Z" id="Shape"></path>
                        </g>
                    </g>
                </g>
            </g>
        </g>
    </g>
</svg>